<svg viewBox="0 0 330 200" xmlns="http://www.w3.org/2000/svg"><g><g><g><g><g><line x1="51.5625" y1="163.73708641489273" x2="46.5625" y2="163.73708641489273" style="visibility: inherit;" fill="rgb(0, 0, 0)" stroke="rgb(204, 204, 204)" stroke-width="1px"></line><line x1="51.5625" y1="149.4383788193066" x2="46.5625" y2="149.4383788193066" style="visibility: inherit;" fill="rgb(0, 0, 0)" stroke="rgb(204, 204, 204)" stroke-width="1px"></line><line x1="51.5625" y1="135.13967122372046" x2="46.5625" y2="135.13967122372046" style="visibility: inherit;" fill="rgb(0, 0, 0)" stroke="rgb(204, 204, 204)" stroke-width="1px"></line><line x1="51.5625" y1="120.84096362813433" x2="46.5625" y2="120.84096362813433" style="visibility: inherit;" fill="rgb(0, 0, 0)" stroke="rgb(204, 204, 204)" stroke-width="1px"></line><line x1="51.5625" y1="106.54225603254821" x2="46.5625" y2="106.54225603254821" style="visibility: inherit;" fill="rgb(0, 0, 0)" stroke="rgb(204, 204, 204)" stroke-width="1px"></line><line x1="51.5625" y1="92.24354843696207" x2="46.5625" y2="92.24354843696207" style="visibility: inherit;" fill="rgb(0, 0, 0)" stroke="rgb(204, 204, 204)" stroke-width="1px"></line><line x1="51.5625" y1="77.94484084137596" x2="46.5625" y2="77.94484084137596" style="visibility: inherit;" fill="rgb(0, 0, 0)" stroke="rgb(204, 204, 204)" stroke-width="1px"></line><line x1="51.5625" y1="63.64613324578981" x2="46.5625" y2="63.64613324578981" style="visibility: inherit;" fill="rgb(0, 0, 0)" stroke="rgb(204, 204, 204)" stroke-width="1px"></line><line x1="51.5625" y1="49.347425650203675" x2="46.5625" y2="49.347425650203675" style="visibility: inherit;" fill="rgb(0, 0, 0)" stroke="rgb(204, 204, 204)" stroke-width="1px"></line><line x1="51.5625" y1="35.04871805461756" x2="46.5625" y2="35.04871805461756" style="visibility: inherit;" fill="rgb(0, 0, 0)" stroke="rgb(204, 204, 204)" stroke-width="1px"></line><line x1="51.5625" y1="20.750010459031408" x2="46.5625" y2="20.750010459031408" style="visibility: inherit;" fill="rgb(0, 0, 0)" stroke="rgb(204, 204, 204)" stroke-width="1px"></line><line x1="51.5625" y1="6.451302863445295" x2="46.5625" y2="6.451302863445295" style="visibility: inherit;" fill="rgb(0, 0, 0)" stroke="rgb(204, 204, 204)" stroke-width="1px"></line></g><g transform="translate(41.5625, 0)"><text x="0" y="163.73708641489273" dx="0em" dy="0.3em" style="text-anchor: end; visibility: inherit; font-family: Roboto, sans-serif; font-size: 12px; font-weight: 200;" fill="rgb(33, 33, 33)" stroke="none" stroke-width="1px">0.4</text><text x="0" y="149.4383788193066" dx="0em" dy="0.3em" style="text-anchor: end; visibility: hidden; font-family: Roboto, sans-serif; font-size: 12px; font-weight: 200;" fill="rgb(33, 33, 33)" stroke="none" stroke-width="1px">0.45</text><text x="0" y="135.13967122372046" dx="0em" dy="0.3em" style="text-anchor: end; visibility: inherit; font-family: Roboto, sans-serif; font-size: 12px; font-weight: 200;" fill="rgb(33, 33, 33)" stroke="none" stroke-width="1px">0.5</text><text x="0" y="120.84096362813433" dx="0em" dy="0.3em" style="text-anchor: end; visibility: hidden; font-family: Roboto, sans-serif; font-size: 12px; font-weight: 200;" fill="rgb(33, 33, 33)" stroke="none" stroke-width="1px">0.55</text><text x="0" y="106.54225603254821" dx="0em" dy="0.3em" style="text-anchor: end; visibility: inherit; font-family: Roboto, sans-serif; font-size: 12px; font-weight: 200;" fill="rgb(33, 33, 33)" stroke="none" stroke-width="1px">0.6</text><text x="0" y="92.24354843696207" dx="0em" dy="0.3em" style="text-anchor: end; visibility: hidden; font-family: Roboto, sans-serif; font-size: 12px; font-weight: 200;" fill="rgb(33, 33, 33)" stroke="none" stroke-width="1px">0.65</text><text x="0" y="77.94484084137596" dx="0em" dy="0.3em" style="text-anchor: end; visibility: inherit; font-family: Roboto, sans-serif; font-size: 12px; font-weight: 200;" fill="rgb(33, 33, 33)" stroke="none" stroke-width="1px">0.7</text><text x="0" y="63.64613324578981" dx="0em" dy="0.3em" style="text-anchor: end; visibility: hidden; font-family: Roboto, sans-serif; font-size: 12px; font-weight: 200;" fill="rgb(33, 33, 33)" stroke="none" stroke-width="1px">0.75</text><text x="0" y="49.347425650203675" dx="0em" dy="0.3em" style="text-anchor: end; visibility: inherit; font-family: Roboto, sans-serif; font-size: 12px; font-weight: 200;" fill="rgb(33, 33, 33)" stroke="none" stroke-width="1px">0.8</text><text x="0" y="35.04871805461756" dx="0em" dy="0.3em" style="text-anchor: end; visibility: hidden; font-family: Roboto, sans-serif; font-size: 12px; font-weight: 200;" fill="rgb(33, 33, 33)" stroke="none" stroke-width="1px">0.85</text><text x="0" y="20.750010459031408" dx="0em" dy="0.3em" style="text-anchor: end; visibility: inherit; font-family: Roboto, sans-serif; font-size: 12px; font-weight: 200;" fill="rgb(33, 33, 33)" stroke="none" stroke-width="1px">0.9</text><text x="0" y="6.451302863445295" dx="0em" dy="0.3em" style="text-anchor: end; visibility: hidden; font-family: Roboto, sans-serif; font-size: 12px; font-weight: 200;" fill="rgb(33, 33, 33)" stroke="none" stroke-width="1px">0.95</text></g><line x1="51.5625" y1="0" x2="51.5625" y2="176.921875" fill="rgb(0, 0, 0)" stroke="rgb(204, 204, 204)" stroke-width="1px"></line></g></g><g transform="translate(51, 0)" clip-path="url(#clip_0)"><clipPath id="clip_0"><rect width="278" height="176"></rect></clipPath><g><g><g><line x1="11.255832950605285" y1="0" x2="11.255832950605285" y2="176.921875" fill="rgb(0, 0, 0)" stroke="rgb(66, 66, 66)" stroke-width="1px" opacity="0.25"></line><line x1="35.65294101653714" y1="0" x2="35.65294101653714" y2="176.921875" fill="rgb(0, 0, 0)" stroke="rgb(66, 66, 66)" stroke-width="1px" opacity="0.25"></line><line x1="60.05004908246901" y1="0" x2="60.05004908246901" y2="176.921875" fill="rgb(0, 0, 0)" stroke="rgb(66, 66, 66)" stroke-width="1px" opacity="0.25"></line><line x1="84.44715714840086" y1="0" x2="84.44715714840086" y2="176.921875" fill="rgb(0, 0, 0)" stroke="rgb(66, 66, 66)" stroke-width="1px" opacity="0.25"></line><line x1="108.84426521433274" y1="0" x2="108.84426521433274" y2="176.921875" fill="rgb(0, 0, 0)" stroke="rgb(66, 66, 66)" stroke-width="1px" opacity="0.25"></line><line x1="133.24137328026458" y1="0" x2="133.24137328026458" y2="176.921875" fill="rgb(0, 0, 0)" stroke="rgb(66, 66, 66)" stroke-width="1px" opacity="0.25"></line><line x1="157.63848134619644" y1="0" x2="157.63848134619644" y2="176.921875" fill="rgb(0, 0, 0)" stroke="rgb(66, 66, 66)" stroke-width="1px" opacity="0.25"></line><line x1="182.0355894121283" y1="0" x2="182.0355894121283" y2="176.921875" fill="rgb(0, 0, 0)" stroke="rgb(66, 66, 66)" stroke-width="1px" opacity="0.25"></line><line x1="206.43269747806016" y1="0" x2="206.43269747806016" y2="176.921875" fill="rgb(0, 0, 0)" stroke="rgb(66, 66, 66)" stroke-width="1px" opacity="0.25"></line><line x1="230.82980554399205" y1="0" x2="230.82980554399205" y2="176.921875" fill="rgb(0, 0, 0)" stroke="rgb(66, 66, 66)" stroke-width="1px" opacity="0.25"></line><line x1="255.2269136099239" y1="0" x2="255.2269136099239" y2="176.921875" fill="rgb(0, 0, 0)" stroke="rgb(66, 66, 66)" stroke-width="1px" opacity="0.25"></line></g><g><line x1="0" y1="163.73708641489273" x2="278.4375" y2="163.73708641489273" fill="rgb(0, 0, 0)" stroke="rgb(66, 66, 66)" stroke-width="1px" opacity="0.25"></line><line x1="0" y1="149.4383788193066" x2="278.4375" y2="149.4383788193066" fill="rgb(0, 0, 0)" stroke="rgb(66, 66, 66)" stroke-width="1px" opacity="0.25"></line><line x1="0" y1="135.13967122372046" x2="278.4375" y2="135.13967122372046" fill="rgb(0, 0, 0)" stroke="rgb(66, 66, 66)" stroke-width="1px" opacity="0.25"></line><line x1="0" y1="120.84096362813433" x2="278.4375" y2="120.84096362813433" fill="rgb(0, 0, 0)" stroke="rgb(66, 66, 66)" stroke-width="1px" opacity="0.25"></line><line x1="0" y1="106.54225603254821" x2="278.4375" y2="106.54225603254821" fill="rgb(0, 0, 0)" stroke="rgb(66, 66, 66)" stroke-width="1px" opacity="0.25"></line><line x1="0" y1="92.24354843696207" x2="278.4375" y2="92.24354843696207" fill="rgb(0, 0, 0)" stroke="rgb(66, 66, 66)" stroke-width="1px" opacity="0.25"></line><line x1="0" y1="77.94484084137596" x2="278.4375" y2="77.94484084137596" fill="rgb(0, 0, 0)" stroke="rgb(66, 66, 66)" stroke-width="1px" opacity="0.25"></line><line x1="0" y1="63.64613324578981" x2="278.4375" y2="63.64613324578981" fill="rgb(0, 0, 0)" stroke="rgb(66, 66, 66)" stroke-width="1px" opacity="0.25"></line><line x1="0" y1="49.347425650203675" x2="278.4375" y2="49.347425650203675" fill="rgb(0, 0, 0)" stroke="rgb(66, 66, 66)" stroke-width="1px" opacity="0.25"></line><line x1="0" y1="35.04871805461756" x2="278.4375" y2="35.04871805461756" fill="rgb(0, 0, 0)" stroke="rgb(66, 66, 66)" stroke-width="1px" opacity="0.25"></line><line x1="0" y1="20.750010459031408" x2="278.4375" y2="20.750010459031408" fill="rgb(0, 0, 0)" stroke="rgb(66, 66, 66)" stroke-width="1px" opacity="0.25"></line><line x1="0" y1="6.451302863445295" x2="278.4375" y2="6.451302863445295" fill="rgb(0, 0, 0)" stroke="rgb(66, 66, 66)" stroke-width="1px" opacity="0.25"></line></g></g></g><g><g><line x1="0" y1="278.1267471795818" x2="278.4375" y2="278.1267471795818" fill="rgb(0, 0, 0)" stroke="rgb(153, 153, 153)" stroke-width="1.5px"></line></g></g><g><g><line x1="11.255832950605285" y1="0" x2="11.255832950605285" y2="176.921875" fill="rgb(0, 0, 0)" stroke="rgb(153, 153, 153)" stroke-width="1.5px"></line></g></g><g><g><g><g><g><path stroke="rgb(255, 112, 67)" stroke-width="2px" d="M11.853562098220618,177.3096877653905L12.463489799868913,165.45155242267646L13.07341750151721,152.4352769066189L13.683345203165505,142.24896956352922L14.293272904813803,134.244672018719L14.9032006064621,128.67353037169218L15.513128308110394,123.37586166734317L16.12305600975869,118.08536427830302L16.732983711406987,114.30554568588849L17.342911413055283,110.28504287308674L17.952839114703583,107.32777949856096L18.56276681635188,104.83960967992603L19.172694518000174,102.26658586837098L19.78262221964847,100.4803696971008L20.392549921296766,98.00553616369389L21.002477622945065,96.0814040328508L21.61240532459336,94.61303844110651L22.222333026241657,94.06035566931808L22.832260727889956,92.73730721925908L23.442188429538252,89.80004159821043L24.052116131186544,87.87716624582687L24.66204383283484,86.8351781546841L25.27197153448314,85.09988057056684L25.881899236131435,83.63980135676435L26.49182693777973,81.66761398145874L27.10175463942803,80.4703415392966L27.711682341076326,79.76594297701848L28.321610042724622,77.45123782742907L28.93153774437292,75.43405424224386L29.541465446021213,75.1523229509087L30.15139314766951,75.12990184259827L30.76132084931781,73.04983893286638L31.371248550966104,71.38289382388304L31.9811762526144,70.08250979565467L32.5911039542627,68.59711851780634L33.201031655910995,67.39170317738203L33.81095935755929,66.84998054348011L34.42088705920759,65.62429594639805L35.03081476085588,63.80670761183621L35.64074246250418,63.40037011478478L36.250670164152474,62.57707897852973L36.86059786580077,60.854309112612256L37.47052556744907,58.556943055141055L38.08045326909737,57.70215773253535L38.690380970745665,57.1194686308779L39.30030867239396,55.729568337951854L39.910236374042256,53.82043237621527L40.52016407569055,53.23349406468415L41.130091777338855,51.70839022030769L41.74001947898715,50.64671030651243L42.34994718063544,48.99734268960307L42.959874882283735,47.89601346637177L43.56980258393203,46.66270908534511L44.17973028558033,45.050002604459934L44.78965798722862,43.24456381775048L45.399585688876925,42.796643510178114L46.00951339052522,41.38985942227489L46.61944109217352,41.418512821802956L47.22936879382181,40.46523593779581L47.83929649547011,39.81647010839186L48.449224197118404,38.3310694522988L49.05915189876671,37.37699294127958L49.669079600415,37.28629060112092L50.2790073020633,36.68728951320944L50.888935003711595,36.11843513591782L51.49886270535989,35.22556103490842L52.10879040700818,34.131293308850225L52.71871810865648,33.39793297421557L53.32864581030478,32.971880355071086L53.938573511953074,32.15770551813176L54.54850121360137,31.529564799605062L55.158428915249665,31.54366065430586L55.76835661689796,31.105283554764274L56.37828431854626,30.870184458311936L56.98821202019456,30.100763826806414L57.598139721842855,29.22020399881362L58.20806742349115,28.622050193836373L58.81799512513945,27.48119733921644L59.42792282678774,28.339661397257217L60.03785052843604,28.407905219719623L60.64777823008434,27.59009124256374L61.25770593173264,26.46405989181789L61.86763363338093,25.82335003546118L62.47756133502922,25.585541728828424L63.08748903667752,25.058858249850136L63.69741673832581,25.25251889218862L64.30734443997412,24.85904454786626L64.91727214162242,24.30877935445576L65.52719984327071,24.202037544590475L66.13712754491901,23.96344768821742L66.7470552465673,23.87614810093881L67.35698294821559,23.59336925157249L67.96691064986389,23.451629105225265L68.5768383515122,22.780114588691763L69.18676605316048,22.53778706758926L69.79669375480877,22.378426973291464L70.40662145645709,22.226956590167514L71.01654915810538,21.675276166294744L71.62647685975368,21.26048642215322L72.23640456140197,21.02557615730461L72.84633226305027,20.8706664167591L73.45625996469856,20.589212220341587L74.06618766634686,20.127104488128495L74.67611536799515,19.877767012073253L75.28604306964345,19.46983826616828L75.89597077129174,19.371698625806573L76.50589847294003,19.201106188499057L77.11582617458834,19.364058777204512L77.72575387623665,18.617033641430737L78.33568157788494,19.02059703978168L78.94560927953323,18.501719879613095L79.55553698118153,18.7559186397827L80.16546468282982,18.384803584522658L80.77539238447812,18.36460648509319L81.38532008612641,18.33154285298102L81.99524778777472,17.969596923624003L82.605175489423,17.81526548337325L83.21510319107131,17.74361199167725L83.8250308927196,17.77741959565939L84.4349585943679,18.251520561228897L85.04488629601619,17.80289310466406L85.6548139976645,17.50578946745256L86.2647416993128,17.292618331034863L86.8746694009611,16.529372684731925L87.48459710260938,16.120297832677274L88.09452480425767,16.140160972534442L88.70445250590598,16.53607735144741L89.31438020755427,16.592100617523087L89.92430790920257,16.220770709715403L90.53423561085086,16.221390071211825L91.14416331249916,15.760963494111246L91.75409101414745,16.05721439493985L92.36401871579575,15.864930022074672L92.97394641744405,15.17705255126665L93.58387411909236,15.280978589325496L94.19380182074065,15.168789441706847L94.80372952238895,15.157330279680908L95.41365722403724,14.892128522193552L96.02358492568554,15.082097008608988L96.63351262733383,15.126260192276671L97.24344032898213,15.20163063820441L97.85336803063042,14.99550843630738L98.46329573227871,15.130161375440954L99.07322343392701,15.343607164466073L99.6831511355753,15.325057030699869L100.2930788372236,15.083527853440991L100.9030065388719,15.23184556144823L101.51293424052021,14.538875614618973L102.1228619421685,14.835236309973464L102.7327896438168,14.377709762733852L103.34271734546509,14.724573217206036L103.95264504711339,14.450947723436531L104.56257274876168,14.209972728175135L105.17250045040998,13.807061470746422L105.78242815205827,13.704950532652354L106.39235585370658,13.53197531670542L107.00228355535486,13.372335860591978L107.61221125700315,13.520914865559442L108.22213895865146,13.372681380722563L108.83206666029976,13.276759499002242L109.44199436194806,13.03069801787983L110.05192206359635,13.308950369113985L110.66184976524465,13.273429846127925L111.27177746689294,13.077572761882358L111.88170516854125,13.043840001152875L112.49163287018953,13.06549108962413L113.10156057183784,13.09942711516136L113.71148827348613,13.049970822302143L114.32141597513443,13.683567174311545L114.93134367678272,13.121183225065943L115.54127137843102,13.391168656698271L116.15119908007932,13.00858023186144L116.76112678172763,12.918662993322434L117.37105448337591,12.976421303289548L117.98098218502422,12.948240171906427L118.5909098866725,12.414678972532883L119.2008375883208,12.164360161090341L119.8107652899691,12.34929483349639L120.42069299161739,12.509128172667094L121.03062069326569,12.632955339442155L121.64054839491398,12.497797914962463L122.25047609656228,12.591248230728596L122.86040379821057,12.528627976279564L123.47033149985887,12.114039119429691L124.08025920150718,12.004921621682893L124.69018690315548,12.162868429215843L125.30011460480377,11.992328462645654L125.91004230645207,12.280984768520318L126.51997000810036,12.139997965228046L127.12989770974866,12.048424092434566L127.73982541139695,11.825916789122688L128.34975311304524,12.097356274588671L128.95968081469354,12.1205841495051L129.56960851634184,11.757504170274498L130.17953621799012,11.407002157191128L130.78946391963842,11.371245719795041L131.39939162128672,11.58717274517471L132.00931932293503,11.79352865940225L132.61924702458333,11.76374280993933L133.22917472623163,11.836634580897623L133.8391024278799,11.412589658656099L134.4490301295282,11.416488965582971L135.0589578311765,11.460719294648037L135.66888553282482,11.480275701268928L136.2788132344731,11.401246264605405L136.8887409361214,11.067575179062851L137.4986686377697,11.153625951281763L138.10859633941797,10.92598478188682L138.71852404106627,11.320016182429802L139.32845174271458,11.353963089029044L139.93837944436288,10.773897222627069L140.54830714601118,11.068182458056349L141.1582348476595,10.923591221678658L141.76816254930776,11.109126321760192L142.37809025095606,10.955139330719149L142.98801795260437,10.625366248277158L143.59794565425267,10.462411352902736L144.20787335590094,10.20405722686051L144.81780105754925,10.509842945233553L145.42772875919755,10.798041238529715L146.03765646084585,10.67772500014479L146.64758416249413,10.884806889840139L147.25751186414243,10.848474834839722L147.86743956579073,11.119910816202099L148.477367267439,10.430993925204342L149.0872949690873,10.541278101967478L149.6972226707356,10.404976674298782L150.30715037238392,10.525667751424134L150.91707807403222,10.409574045609078L151.52700577568052,10.221227378211417L152.13693347732882,10.303709520681206L152.74686117897713,10.443962086799123L153.3567888806254,10.402441391743048L153.9667165822737,10.2448749491644L154.576644283922,10.366770598980091L155.1865719855703,10.048927703052678L155.79649968721858,10.249202251313084L156.4064273888669,10.418239515996392L157.0163550905152,10.296244568625358L157.6262827921635,10.069448202203242L158.23621049381177,10.093951571167615L158.84613819546007,10.101671801728104L159.45606589710837,9.917795587974116L160.06599359875665,10.051832538357244L160.67592130040495,9.783165167679238L161.28584900205325,9.775564143271906L161.89577670370156,10.141038441989842L162.50570440534983,10.115960342585105L163.11563210699813,9.891459758397529L163.72555980864644,10.008103877338682L164.33548751029474,10.29452586406622L164.94541521194301,10.215034586649054L165.55534291359132,10.237157728380351L166.16527061523965,9.831524164329695L166.77519831688795,9.986106102534281L167.38512601853623,9.904310495003104L167.99505372018453,9.68068836003046L168.60498142183283,9.94447715568187L169.2149091234811,9.830460591164545L169.8248368251294,9.405979320728132L170.4347645267777,9.256017420738653L171.04469222842602,9.598911311470722L171.6546199300743,9.63010287545603L172.2645476317226,9.530127369938528L172.8744753333709,9.358433413537497L173.4844030350192,9.478834345877901L174.09433073666747,9.43936625219166L174.70425843831578,9.262085997980437L175.31418613996408,9.169681427090039L175.92411384161238,9.686745531644707L176.53404154326066,9.703748780014882L177.14396924490896,9.630169239219097L177.75389694655726,9.439403907560349L178.36382464820554,9.527416642291648L178.97375234985384,9.14037146158651L179.58368005150214,9.054761960344727L180.19360775315045,9.205868193326204L180.80353545479872,9.324459096387724L181.41346315644705,9.465431546406238L182.02339085809535,9.193943684691295L182.63331855974366,9.051996340116796L183.24324626139193,9.35780821918893L183.85317396304023,9.171260433269856L184.46310166468854,9.038386389263955L185.07302936633684,8.895825845496962L185.68295706798511,8.712544447782612L186.29288476963342,8.902792614334759L186.90281247128172,8.667851973358161L187.51274017293002,8.813141012316658L188.1226678745783,8.781623991783073L188.7325955762266,8.755731988644769L189.3425232778749,9.277794679759898L189.95245097952318,9.15117947288508L190.56237868117148,8.761029761943117L191.17230638281978,8.722430078286317L191.7822340844681,8.88079682936436L192.39216178611636,8.940907925920385L193.00208948776466,9.00490174712662L193.61201718941297,9.008389085759564L194.22194489106127,9.06633581548462L194.83187259270954,9.017322363501728L195.44180029435785,8.575988634040728L196.05172799600615,8.709150472999102L196.66165569765445,8.558648479374948L197.27158339930276,8.307766094382846L197.88151110095106,8.625016648204097L198.49143880259936,8.584967883497669L199.10136650424766,8.735483395127737L199.71129420589594,8.71408404901523L200.32122190754424,8.65935369643881L200.93114960919254,8.877859954346585L201.54107731084088,8.84140072945554L202.15100501248915,8.805561612884548L202.76093271413745,8.672349489851472L203.37086041578576,8.43184102721398L203.98078811743403,8.455098929267262L204.59071581908233,8.364326808226888L205.20064352073064,8.295899953966344L205.81057122237894,8.268807423046322L206.4204989240272,8.573714282129577L207.03042662567552,8.533241091398478L207.64035432732382,8.131940472779297L208.25028202897212,8.079668453698035L208.8602097306204,8.11114135961274L209.4701374322687,8.409296735887848L210.080065133917,8.37175444629003L210.6899928355653,8.551701006257895L211.29992053721358,8.457197008512066L211.90984823886188,8.484276099682425L212.5197759405102,8.612232207475177L213.12970364215846,8.793732734423203L213.73963134380676,8.581470672956788L214.34955904545507,8.440149854440593L214.95948674710337,8.983718536965014L215.56941444875164,8.430154103391878L216.17934215039995,7.993288580975623L216.78926985204828,7.821932548161907L217.39919755369658,7.795918627473444L218.00912525534486,8.12241802515006L218.61905295699316,8.185663638211045L219.22898065864146,8.049066235593694L219.83890836028976,7.841435559296445L220.44883606193804,7.723838944336286L221.05876376358634,7.813862164177778L221.66869146523464,8.02845728490032L222.27861916688292,7.940778841970974L222.88854686853122,8.237261317121233L223.49847457017952,8.310423939938985L224.10840227182783,8.158831370721268L224.7183299734761,8.081839410826925L225.3282576751244,8.112443933890042L225.9381853767727,8.493859770272106L226.548113078421,8.338710777102689L227.15804078006929,8.294493916928133L227.7679684817176,8.240036637550801L228.3778961833659,8.179435106651784L228.9878238850142,8.045329116658136L229.59775158666247,7.4621765837546095L230.20767928831077,7.656864747828788L230.81760698995907,7.738768692182497L231.42753469160735,7.473730471977639L232.03746239325568,7.635869917489966L232.64739009490398,7.795989702160781L233.2573177965523,7.878097991326957L233.86724549820056,7.864526847463257L234.47717319984886,8.00300176832633L235.08710090149717,7.841724042208664L235.69702860314547,7.884593222901217L236.30695630479374,8.042968756861743L236.91688400644205,7.84475886287545L237.52681170809035,7.963213814301007L238.13673940973865,8.013341412701902L238.74666711138693,7.917745737015568L239.35659481303523,8.12569638269376L239.96652251468353,7.999122300646983L240.57645021633184,7.972050387146046L241.1863779179801,8.046570519681554L241.7963056196284,7.979573946112311L242.40623332127672,8.051084655061329L243.016161022925,7.696029003795732L243.6260887245733,7.818121572307947L244.2360164262216,7.807595623597345L244.8459441278699,7.759389309462055L245.45587182951817,7.5768661229814045L246.06579953116648,7.809459961182718L246.67572723281478,7.592944932377498L247.2856549344631,7.951761272365388L247.89558263611138,7.943633770177109L248.5055103377597,7.708358171864931L249.115438039408,7.650974302695516L249.7253657410563,7.3302905576494L250.33529344270457,7.235625382075942L250.94522114435287,7.479043281912643L251.55514884600117,7.401676715633619L252.16507654764948,7.250529913593815L252.77500424929775,7.578749281459413L253.38493195094605,7.433573152089053L253.99485965259436,7.465157918375535L254.60478735424263,7.197855354602953L255.21471505589093,7.435435892974349L255.82464275753924,7.382494073088816L256.4345704591875,7.336765399521169L257.0444981608358,7.476891175016349L257.6544258624841,7.588893803586085L258.2643535641324,7.851585523636337L258.8742812657807,7.708983550485743L259.484208967429,7.386041478778026L260.09413666907733,7.269075934753102L260.7040643707256,7.4153321237010195L261.3139920723739,7.5030858370697935L261.9239197740222,7.101921661910826L262.5338474756705,7.084640462996474L263.1437751773188,7.465252029464701L263.7537028789671,7.3584930100740795L264.3636305806154,7.266510435167086L264.9735582822637,7.2043390994046925L265.583485983912,7.069291226493107L266.1934136855603,7.27451592629058L266.8033413872086,7.195178812442492" style="fill: none;" fill="none"></path></g></g></g></g><g opacity="0.2"><g><g><g><path stroke="rgb(255, 112, 67)" stroke-width="2px" d="M11.853562098220618,177.3096877653905L12.463489799868913,158.33667121704806L13.07341750151721,139.9396524112036L13.683345203165505,130.26987212805577L14.293272904813803,123.79426114421487L14.9032006064621,120.96663586286115L15.513128308110394,115.80011065742477L16.12305600975869,110.37176829630747L16.732983711406987,108.7310474540405L17.342911413055283,104.31506476155602L17.952839114703583,102.91870659792457L18.56276681635188,101.12089546224908L19.172694518000174,98.41545152021313L19.78262221964847,97.80454482362435L20.392549921296766,94.29619493750033L21.002477622945065,93.19656288364054L21.61240532459336,92.41111141659786L22.222333026241657,93.23147183773133L22.832260727889956,90.75293609728548L23.442188429538252,85.39441164434976L24.052116131186544,84.99295867230573L24.66204383283484,85.27223030503201L25.27197153448314,82.49696845481449L25.881899236131435,81.44969983209091L26.49182693777973,78.70934693596418L27.10175463942803,78.67443798187338L27.711682341076326,78.70934693596418L28.321610042724622,73.97918365666261L28.93153774437292,72.40828072257722L29.541465446021213,74.72972616961451L30.15139314766951,75.09627018756778L30.76132084931781,69.92974498213137L31.371248550966104,68.88247635940778L31.9811762526144,68.13193384645588L32.5911039542627,66.36903166487114L33.201031655910995,65.58358019782845L33.81095935755929,66.0373966010087L34.42088705920759,63.78576906215295L35.03081476085588,61.080325120117L35.64074246250418,62.79086387056554L36.250670164152474,61.3421422757979L36.86059786580077,58.2701543158087L37.47052556744907,55.110893970592514L38.08045326909737,56.41997974899702L38.690380970745665,56.24543497854309L39.30030867239396,53.64471789877949L39.910236374042256,50.956728433788946L40.52016407569055,52.35308659742039L41.130091777338855,49.42073445379433L41.74001947898715,49.054190435841065L42.34994718063544,46.523291264259065L42.959874882283735,46.244019631532765L43.56980258393203,44.81275251381053L44.17973028558033,42.63094288313637L44.78965798722862,40.53640563768918L45.399585688876925,42.124763048819965L46.00951339052522,39.27968329042087L46.61944109217352,41.46149292109503L47.22936879382181,39.03532061178536L47.83929649547011,38.84332136428604L48.449224197118404,36.102968468159304L49.05915189876671,35.94587817475076L49.669079600415,37.15023709088289L50.2790073020633,35.78878788134223L50.888935003711595,35.26515356998042L51.49886270535989,33.886249883394356L52.10879040700818,32.48989171976291L52.71871810865648,32.29789247226357L53.32864581030478,32.33280142635436L53.938573511953074,30.936443262722914L54.54850121360137,30.587353721815052L55.158428915249665,31.564804436357058L55.76835661689796,30.447717905451892L56.37828431854626,30.517535813633472L56.98821202019456,28.946632879548073L57.598139721842855,27.899364256824487L58.20806742349115,27.724819486370556L58.81799512513945,25.769918057286503L59.42792282678774,29.62735748431841L60.03785052843604,28.510270953413244L60.64777823008434,26.363370276829876L61.25770593173264,24.775012865699093L61.86763363338093,24.862285250926057L62.47756133502922,25.228829268879327L63.08748903667752,24.268833031382705L63.69741673832581,25.543009855696397L64.30734443997412,24.268833031382705L64.91727214162242,23.483381564339997L65.52719984327071,24.041924829792578L66.13712754491901,23.605562903657752L66.7470552465673,23.74519872002089L67.35698294821559,23.169200977522923L67.96691064986389,23.239018885704503L68.5768383515122,21.772842813891454L69.18676605316048,22.174295785935513L69.79669375480877,22.13938683184472L70.40662145645709,21.999751015481582L71.01654915810538,20.847755530485625L71.62647685975368,20.638301805940905L72.23640456140197,20.673210760031694L72.84633226305027,20.638301805940905L73.45625996469856,20.167030925715288L74.06618766634686,19.433942889808772L74.67611536799515,19.503760797990353L75.28604306964345,18.857945147310804L75.89597077129174,19.22448916526405L76.50589847294003,18.945217532537768L77.11582617458834,19.608487660262703L77.72575387623665,17.496495937770128L78.33568157788494,19.625942137308087L78.94560927953323,17.723404139360234L79.55553698118153,19.137216780037086L80.16546468282982,17.828131001632602L80.77539238447812,18.33431083594899L81.38532008612641,18.281947404812815L81.99524778777472,17.426678029588548L82.605175489423,17.58376832299709L83.21510319107131,17.636131754133267L83.8250308927196,17.828131001632602L84.4349585943679,18.962672009583155L85.04488629601619,17.129951919816857L85.6548139976645,17.0601340116353L86.2647416993128,16.97286162640833L86.8746694009611,15.384504215277548L87.48459710260938,15.506685554595304L88.09452480425767,16.16995568232024L88.70445250590598,17.129951919816857L89.31438020755427,16.676135516636645L89.92430790920257,15.66377584800383L90.53423561085086,16.222319113456415L91.14416331249916,15.070323628460457L91.75409101414745,16.501590746182714L92.36401871579575,15.576503462776865L92.97394641744405,14.145236345054627L93.58387411909236,15.436867646413724L94.19380182074065,15.000505720278897L94.80372952238895,15.140141536642037L95.41365722403724,14.494325885962489L96.02358492568554,15.367049738232144L96.63351262733383,15.192504967778213L97.24344032898213,15.314686307095968L97.85336803063042,14.686325133461805L98.46329573227871,15.332140784141373L99.07322343392701,15.66377584800383L99.6831511355753,15.297231830050583L100.2930788372236,14.721234087552595L100.9030065388719,15.454322123459109L101.51293424052021,13.499420694375079L102.1228619421685,15.279777353005178L102.7327896438168,13.691419941874395L103.34271734546509,15.244868398914388L103.95264504711339,14.040509482782257L104.56257274876168,13.84851023528294L105.17250045040998,13.20269458460339L105.78242815205827,13.551784125511254L106.39235585370658,13.272512492784973L107.00228355535486,13.13287667642181L107.61221125700315,13.74378337301059L108.22213895865146,13.150331153467215L108.83206666029976,13.13287667642181L109.44199436194806,12.661605796196193L110.05192206359635,13.726328895965185L110.66184976524465,13.220149061648776L111.27177746689294,12.783787135513949L111.88170516854125,12.99324086005867L112.49163287018953,13.09796772233102L113.10156057183784,13.150331153467215L113.71148827348613,12.975786383013284L114.32141597513443,14.63396170232563L114.93134367678272,12.277607301197541L115.54127137843102,13.796146804146765L116.15119908007932,12.434697594606087L116.76112678172763,12.783787135513949L117.37105448337591,13.06305876824025L117.98098218502422,12.905968474831704L118.5909098866725,11.614337173472608L119.2008375883208,11.788881943926539L119.8107652899691,12.626696842105423L120.42069299161739,12.748878181423159L121.03062069326569,12.818696089604739L121.64054839491398,12.295061778242946L122.25047609656228,12.731423704377773L122.86040379821057,12.434697594606087L123.47033149985887,11.492155834154852L124.08025920150718,11.841245375062714L124.69018690315548,12.399788640515297L125.30011460480377,11.736518512790363L125.91004230645207,12.713969227332388L126.51997000810036,11.92851776028968L127.12989770974866,11.911063283244294L127.73982541139695,11.492155834154852L128.34975311304524,12.504515502787667L128.95968081469354,12.155425961879805L129.56960851634184,11.21288420142857L130.17953621799012,10.881249137566094L130.78946391963842,11.317611063700921L131.39939162128672,11.911063283244294L132.00931932293503,12.10306253074361L132.61924702458333,11.719064035744958L133.22917472623163,11.945972237335084L133.8391024278799,10.776522275293722L134.4490301295282,11.422337925973272L135.0589578311765,11.527064788245642L135.66888553282482,11.509610311200257L136.2788132344731,11.282702109610131L136.8887409361214,10.56706855074902L137.4986686377697,11.282702109610131L138.10859633941797,10.584523027794406L138.71852404106627,11.911063283244294L139.32845174271458,11.404883448927887L139.93837944436288,9.903798423024067L140.54830714601118,11.509610311200257L141.1582348476595,10.706704367112161L141.76816254930776,11.387428971882501L142.37809025095606,10.724158844157547L142.98801795260437,10.130706624614174L143.59794565425267,10.21797900984114L144.20787335590094,9.816526037797102L144.81780105754925,10.96852152279306L145.42772875919755,11.230338678473956L146.03765646084585,10.49725064256744L146.64758416249413,11.195429724383166L147.25751186414243,10.793976752339129L147.86743956579073,11.527064788245642L148.477367267439,9.39761858870766L149.0872949690873,10.706704367112161L149.6972226707356,10.200524532795754L150.30715037238392,10.706704367112161L150.91707807403222,10.235433486886544L151.52700577568052,9.938707377114858L152.13693347732882,10.42743273438586L152.74686117897713,10.654340935975986L153.3567888806254,10.340160349158895L153.9667165822737,10.008525285296438L154.576644283922,10.549614073703616L155.1865719855703,9.572163359161591L155.79649968721858,10.549614073703616L156.4064273888669,10.671795413021371L157.0163550905152,10.113252147568788L157.6262827921635,9.729253652570137L158.23621049381177,10.130706624614174L158.84613819546007,10.113252147568788L159.45606589710837,9.641981267343171L160.06599359875665,10.25288796393193L160.67592130040495,9.380164111662275L161.28584900205325,9.764162606660927L161.89577670370156,10.689249890066757L162.50570440534983,10.078343193477998L163.11563210699813,9.554708882116206L163.72555980864644,10.183070055750369L164.33548751029474,10.724158844157547L164.94541521194301,10.095797670523403L165.55534291359132,10.270342440977334L166.16527061523965,9.223073818253729L166.77519831688795,10.21797900984114L167.38512601853623,9.781617083706312L167.99505372018453,9.345255157571485L168.60498142183283,10.340160349158895L169.2149091234811,9.659435744388556L169.8248368251294,8.769257415073517L170.4347645267777,9.031074570754413L171.04469222842602,10.113252147568788L171.6546199300743,9.676890221433961L172.2645476317226,9.380164111662275L172.8744753333709,9.100892478935974L173.4844030350192,9.659435744388556L174.09433073666747,9.380164111662275L174.70425843831578,8.996165616663623L175.31418613996408,9.031074570754413L175.92411384161238,10.46234168847665L176.53404154326066,9.729253652570137L177.14396924490896,9.519799928025416L177.75389694655726,9.153255910072168L178.36382464820554,9.659435744388556L178.97375234985384,8.559803690528796L179.58368005150214,8.926347708482043L180.19360775315045,9.43252754279845L180.80353545479872,9.50234545098003L181.41346315644705,9.676890221433961L182.02339085809535,8.786711892118902L182.63331855974366,8.839075323255077L183.24324626139193,9.816526037797102L183.85317396304023,8.891438754391272L184.46310166468854,8.839075323255077L185.07302936633684,8.681985029846551L185.68295706798511,8.43762235121104L186.29288476963342,9.188164864162939L186.90281247128172,8.315441011893284L187.51274017293002,9.031074570754413L188.1226678745783,8.734348460982726L188.7325955762266,8.716893983937341L189.3425232778749,10.060888716432613L189.95245097952318,8.961256662572833L190.56237868117148,8.175805195530144L191.17230638281978,8.664530552801146L191.7822340844681,9.118346955981378L192.39216178611636,9.031074570754413L193.00208948776466,9.100892478935974L193.61201718941297,9.013620093709008L194.22194489106127,9.153255910072168L194.83187259270954,8.943802185527447L195.44180029435785,7.913988039849246L196.05172799600615,8.908893231436657L196.66165569765445,8.33289548893869L197.27158339930276,7.931442516894632L197.88151110095106,9.100892478935974L198.49143880259936,8.524894736438005L199.10136650424766,8.961256662572833L199.71129420589594,8.681985029846551L200.32122190754424,8.57725816757418L200.93114960919254,9.205619341208344L201.54107731084088,8.786711892118902L202.15100501248915,8.751802938028112L202.76093271413745,8.47253130530183L203.37086041578576,8.071078333257772L203.98078811743403,8.489985782347215L204.59071581908233,8.228168626666319L205.20064352073064,8.193259672575527L205.81057122237894,8.228168626666319L206.4204989240272,9.031074570754413L207.03042662567552,8.47253130530183L207.64035432732382,7.5299895448505945L208.25028202897212,8.001260425076211L208.8602097306204,8.158350718484758L209.4701374322687,8.856529800300482L210.080065133917,8.315441011893284L210.6899928355653,8.821620846209692L211.29992053721358,8.315441011893284L211.90984823886188,8.524894736438005L212.5197759405102,8.804166369164307L213.12970364215846,9.065983524845203L213.73963134380676,8.263077580757109L214.34955904545507,8.228168626666319L214.95948674710337,9.799071560751717L215.56941444875164,7.599807453032175L216.17934215039995,7.337990297351258L216.78926985204828,7.5648984989413846L217.39919755369658,7.756897746440701L218.00912525534486,8.612167121664971L218.61905295699316,8.280532057802494L219.22898065864146,7.844170131667666L219.83890836028976,7.5299895448505945L220.44883606193804,7.547444021895979L221.05876376358634,7.9488969939400365L221.66869146523464,8.350349965984075L222.27861916688292,7.809261177576876L222.88854686853122,8.681985029846551L223.49847457017952,8.420167874165655L224.10840227182783,7.931442516894632L224.7183299734761,7.966351470985422L225.3282576751244,8.158350718484758L225.9381853767727,9.065983524845203L226.548113078421,8.105987287348562L227.15804078006929,8.228168626666319L227.7679684817176,8.158350718484758L228.3778961833659,8.088532810303176L228.9878238850142,7.844170131667666L229.59775158666247,6.587447784399359L230.20767928831077,7.9488969939400365L230.81760698995907,7.861624608713071L231.42753469160735,7.0761731416703615L232.03746239325568,7.879079085758456L232.64739009490398,8.036169379167001L233.2573177965523,8.001260425076211L233.86724549820056,7.844170131667666L234.47717319984886,8.210714149620934L235.08710090149717,7.599807453032175L235.69702860314547,7.9488969939400365L236.30695630479374,8.280532057802494L236.91688400644205,7.547444021895979L237.52681170809035,8.140896241439352L238.13673940973865,8.088532810303176L238.74666711138693,7.7743522234861056L239.35659481303523,8.43762235121104L239.96652251468353,7.809261177576876L240.57645021633184,7.931442516894632L241.1863779179801,8.158350718484758L241.7963056196284,7.879079085758456L242.40623332127672,8.158350718484758L243.016161022925,7.163445526897327L243.6260887245733,8.001260425076211L244.2360164262216,7.791806700531491L244.8459441278699,7.68707983825914L245.45587182951817,7.303081343260487L246.06579953116648,8.158350718484758L246.67572723281478,7.268172389169697L247.2856549344631,8.489985782347215L247.89558263611138,7.931442516894632L248.5055103377597,7.355444774396663L249.115438039408,7.5648984989413846L249.7253657410563,6.849264940080255L250.33529344270457,7.093627618715766L250.94522114435287,7.844170131667666L251.55514884600117,7.2856268662150825L252.16507654764948,7.023809710534186L252.77500424929775,8.071078333257772L253.38493195094605,7.215808958033522L253.99485965259436,7.512535067805189L254.60478735424263,6.79690150894408L255.21471505589093,7.791806700531491L255.82464275753924,7.303081343260487L256.4345704591875,7.268172389169697L257.0444981608358,7.68707983825914L257.6544258624841,7.756897746440701L258.2643535641324,8.245623103711724L258.8742812657807,7.4950805907598035L259.484208967429,6.901628371216431L260.09413666907733,7.093627618715766L260.7040643707256,7.634716407122945L261.3139920723739,7.634716407122945L261.9239197740222,6.500175399172393L262.5338474756705,7.058718664624976L263.1437751773188,8.036169379167001L263.7537028789671,7.198354480988117L264.3636305806154,7.128536572806556L264.9735582822637,7.111082095761152L265.583485983912,6.8667194171256405L266.1934136855603,7.58235297598677L266.8033413872086,7.0761731416703615" style="fill: none;" fill="none"></path></g></g></g></g></g></g><g transform="translate(51, 176)" clip-path="url(#clip_1)"><clipPath id="clip_1"><rect width="278" height="23"></rect></clipPath><g><g><line x1="11.255832950605285" y1="0" x2="11.255832950605285" y2="5" style="visibility: inherit;" fill="rgb(0, 0, 0)" stroke="rgb(204, 204, 204)" stroke-width="1px"></line><line x1="35.65294101653714" y1="0" x2="35.65294101653714" y2="5" style="visibility: inherit;" fill="rgb(0, 0, 0)" stroke="rgb(204, 204, 204)" stroke-width="1px"></line><line x1="60.05004908246901" y1="0" x2="60.05004908246901" y2="5" style="visibility: inherit;" fill="rgb(0, 0, 0)" stroke="rgb(204, 204, 204)" stroke-width="1px"></line><line x1="84.44715714840086" y1="0" x2="84.44715714840086" y2="5" style="visibility: inherit;" fill="rgb(0, 0, 0)" stroke="rgb(204, 204, 204)" stroke-width="1px"></line><line x1="108.84426521433274" y1="0" x2="108.84426521433274" y2="5" style="visibility: inherit;" fill="rgb(0, 0, 0)" stroke="rgb(204, 204, 204)" stroke-width="1px"></line><line x1="133.24137328026458" y1="0" x2="133.24137328026458" y2="5" style="visibility: inherit;" fill="rgb(0, 0, 0)" stroke="rgb(204, 204, 204)" stroke-width="1px"></line><line x1="157.63848134619644" y1="0" x2="157.63848134619644" y2="5" style="visibility: inherit;" fill="rgb(0, 0, 0)" stroke="rgb(204, 204, 204)" stroke-width="1px"></line><line x1="182.0355894121283" y1="0" x2="182.0355894121283" y2="5" style="visibility: inherit;" fill="rgb(0, 0, 0)" stroke="rgb(204, 204, 204)" stroke-width="1px"></line><line x1="206.43269747806016" y1="0" x2="206.43269747806016" y2="5" style="visibility: inherit;" fill="rgb(0, 0, 0)" stroke="rgb(204, 204, 204)" stroke-width="1px"></line><line x1="230.82980554399205" y1="0" x2="230.82980554399205" y2="5" style="visibility: inherit;" fill="rgb(0, 0, 0)" stroke="rgb(204, 204, 204)" stroke-width="1px"></line><line x1="255.2269136099239" y1="0" x2="255.2269136099239" y2="5" style="visibility: inherit;" fill="rgb(0, 0, 0)" stroke="rgb(204, 204, 204)" stroke-width="1px"></line></g><g transform="translate(0, 8)"><text x="11.255832950605285" y="0" dx="0em" dy="0.95em" style="text-anchor: middle; visibility: inherit; font-family: Roboto, sans-serif; font-size: 12px; font-weight: 200;" fill="rgb(33, 33, 33)" stroke="none" stroke-width="1px">0</text><text x="35.65294101653714" y="0" dx="0em" dy="0.95em" style="text-anchor: middle; visibility: inherit; font-family: Roboto, sans-serif; font-size: 12px; font-weight: 200;" fill="rgb(33, 33, 33)" stroke="none" stroke-width="1px">2k</text><text x="60.05004908246901" y="0" dx="0em" dy="0.95em" style="text-anchor: middle; visibility: inherit; font-family: Roboto, sans-serif; font-size: 12px; font-weight: 200;" fill="rgb(33, 33, 33)" stroke="none" stroke-width="1px">4k</text><text x="84.44715714840086" y="0" dx="0em" dy="0.95em" style="text-anchor: middle; visibility: inherit; font-family: Roboto, sans-serif; font-size: 12px; font-weight: 200;" fill="rgb(33, 33, 33)" stroke="none" stroke-width="1px">6k</text><text x="108.84426521433274" y="0" dx="0em" dy="0.95em" style="text-anchor: middle; visibility: inherit; font-family: Roboto, sans-serif; font-size: 12px; font-weight: 200;" fill="rgb(33, 33, 33)" stroke="none" stroke-width="1px">8k</text><text x="133.24137328026458" y="0" dx="0em" dy="0.95em" style="text-anchor: middle; visibility: inherit; font-family: Roboto, sans-serif; font-size: 12px; font-weight: 200;" fill="rgb(33, 33, 33)" stroke="none" stroke-width="1px">10k</text><text x="157.63848134619644" y="0" dx="0em" dy="0.95em" style="text-anchor: middle; visibility: inherit; font-family: Roboto, sans-serif; font-size: 12px; font-weight: 200;" fill="rgb(33, 33, 33)" stroke="none" stroke-width="1px">12k</text><text x="182.0355894121283" y="0" dx="0em" dy="0.95em" style="text-anchor: middle; visibility: inherit; font-family: Roboto, sans-serif; font-size: 12px; font-weight: 200;" fill="rgb(33, 33, 33)" stroke="none" stroke-width="1px">14k</text><text x="206.43269747806016" y="0" dx="0em" dy="0.95em" style="text-anchor: middle; visibility: inherit; font-family: Roboto, sans-serif; font-size: 12px; font-weight: 200;" fill="rgb(33, 33, 33)" stroke="none" stroke-width="1px">16k</text><text x="230.82980554399205" y="0" dx="0em" dy="0.95em" style="text-anchor: middle; visibility: inherit; font-family: Roboto, sans-serif; font-size: 12px; font-weight: 200;" fill="rgb(33, 33, 33)" stroke="none" stroke-width="1px">18k</text><text x="255.2269136099239" y="0" dx="0em" dy="0.95em" style="text-anchor: middle; visibility: inherit; font-family: Roboto, sans-serif; font-size: 12px; font-weight: 200;" fill="rgb(33, 33, 33)" stroke="none" stroke-width="1px">20k</text></g><line x1="0" y1="0" x2="278.4375" y2="0" fill="rgb(0, 0, 0)" stroke="rgb(204, 204, 204)" stroke-width="1px"></line></g></g></g></g></svg>