<svg viewBox="0 0 330 200" xmlns="http://www.w3.org/2000/svg"><g><g><g><g><g><line x1="41.171875" y1="164.819030053469" x2="36.171875" y2="164.819030053469" style="visibility: inherit;" fill="rgb(0, 0, 0)" stroke="rgb(204, 204, 204)" stroke-width="1px"></line><line x1="41.171875" y1="149.3658677200982" x2="36.171875" y2="149.3658677200982" style="visibility: inherit;" fill="rgb(0, 0, 0)" stroke="rgb(204, 204, 204)" stroke-width="1px"></line><line x1="41.171875" y1="133.9127053867274" x2="36.171875" y2="133.9127053867274" style="visibility: inherit;" fill="rgb(0, 0, 0)" stroke="rgb(204, 204, 204)" stroke-width="1px"></line><line x1="41.171875" y1="118.45954305335661" x2="36.171875" y2="118.45954305335661" style="visibility: inherit;" fill="rgb(0, 0, 0)" stroke="rgb(204, 204, 204)" stroke-width="1px"></line><line x1="41.171875" y1="103.00638071998581" x2="36.171875" y2="103.00638071998581" style="visibility: inherit;" fill="rgb(0, 0, 0)" stroke="rgb(204, 204, 204)" stroke-width="1px"></line><line x1="41.171875" y1="87.55321838661503" x2="36.171875" y2="87.55321838661503" style="visibility: inherit;" fill="rgb(0, 0, 0)" stroke="rgb(204, 204, 204)" stroke-width="1px"></line><line x1="41.171875" y1="72.10005605324424" x2="36.171875" y2="72.10005605324424" style="visibility: inherit;" fill="rgb(0, 0, 0)" stroke="rgb(204, 204, 204)" stroke-width="1px"></line><line x1="41.171875" y1="56.64689371987343" x2="36.171875" y2="56.64689371987343" style="visibility: inherit;" fill="rgb(0, 0, 0)" stroke="rgb(204, 204, 204)" stroke-width="1px"></line><line x1="41.171875" y1="41.19373138650264" x2="36.171875" y2="41.19373138650264" style="visibility: inherit;" fill="rgb(0, 0, 0)" stroke="rgb(204, 204, 204)" stroke-width="1px"></line><line x1="41.171875" y1="25.740569053131836" x2="36.171875" y2="25.740569053131836" style="visibility: inherit;" fill="rgb(0, 0, 0)" stroke="rgb(204, 204, 204)" stroke-width="1px"></line><line x1="41.171875" y1="10.287406719761027" x2="36.171875" y2="10.287406719761027" style="visibility: inherit;" fill="rgb(0, 0, 0)" stroke="rgb(204, 204, 204)" stroke-width="1px"></line></g><g transform="translate(31.171875, 0)"><text x="0" y="164.819030053469" dx="0em" dy="0.3em" style="text-anchor: end; visibility: inherit; font-family: Roboto, sans-serif; font-size: 12px; font-weight: 200;" fill="rgb(33, 33, 33)" stroke="none" stroke-width="1px">0.2</text><text x="0" y="149.3658677200982" dx="0em" dy="0.3em" style="text-anchor: end; visibility: hidden; font-family: Roboto, sans-serif; font-size: 12px; font-weight: 200;" fill="rgb(33, 33, 33)" stroke="none" stroke-width="1px">0.4</text><text x="0" y="133.9127053867274" dx="0em" dy="0.3em" style="text-anchor: end; visibility: inherit; font-family: Roboto, sans-serif; font-size: 12px; font-weight: 200;" fill="rgb(33, 33, 33)" stroke="none" stroke-width="1px">0.6</text><text x="0" y="118.45954305335661" dx="0em" dy="0.3em" style="text-anchor: end; visibility: hidden; font-family: Roboto, sans-serif; font-size: 12px; font-weight: 200;" fill="rgb(33, 33, 33)" stroke="none" stroke-width="1px">0.8</text><text x="0" y="103.00638071998581" dx="0em" dy="0.3em" style="text-anchor: end; visibility: inherit; font-family: Roboto, sans-serif; font-size: 12px; font-weight: 200;" fill="rgb(33, 33, 33)" stroke="none" stroke-width="1px">1</text><text x="0" y="87.55321838661503" dx="0em" dy="0.3em" style="text-anchor: end; visibility: hidden; font-family: Roboto, sans-serif; font-size: 12px; font-weight: 200;" fill="rgb(33, 33, 33)" stroke="none" stroke-width="1px">1.2</text><text x="0" y="72.10005605324424" dx="0em" dy="0.3em" style="text-anchor: end; visibility: inherit; font-family: Roboto, sans-serif; font-size: 12px; font-weight: 200;" fill="rgb(33, 33, 33)" stroke="none" stroke-width="1px">1.4</text><text x="0" y="56.64689371987343" dx="0em" dy="0.3em" style="text-anchor: end; visibility: hidden; font-family: Roboto, sans-serif; font-size: 12px; font-weight: 200;" fill="rgb(33, 33, 33)" stroke="none" stroke-width="1px">1.6</text><text x="0" y="41.19373138650264" dx="0em" dy="0.3em" style="text-anchor: end; visibility: inherit; font-family: Roboto, sans-serif; font-size: 12px; font-weight: 200;" fill="rgb(33, 33, 33)" stroke="none" stroke-width="1px">1.8</text><text x="0" y="25.740569053131836" dx="0em" dy="0.3em" style="text-anchor: end; visibility: hidden; font-family: Roboto, sans-serif; font-size: 12px; font-weight: 200;" fill="rgb(33, 33, 33)" stroke="none" stroke-width="1px">2</text><text x="0" y="10.287406719761027" dx="0em" dy="0.3em" style="text-anchor: end; visibility: inherit; font-family: Roboto, sans-serif; font-size: 12px; font-weight: 200;" fill="rgb(33, 33, 33)" stroke="none" stroke-width="1px">2.2</text></g><line x1="41.171875" y1="0" x2="41.171875" y2="176.921875" fill="rgb(0, 0, 0)" stroke="rgb(204, 204, 204)" stroke-width="1px"></line></g></g><g transform="translate(41, 0)" clip-path="url(#clip_0)"><clipPath id="clip_0"><rect width="288" height="176"></rect></clipPath><g><g><g><line x1="14.397796648053376" y1="0" x2="14.397796648053376" y2="176.921875" fill="rgb(0, 0, 0)" stroke="rgb(66, 66, 66)" stroke-width="1px" opacity="0.25"></line><line x1="39.25806779433362" y1="0" x2="39.25806779433362" y2="176.921875" fill="rgb(0, 0, 0)" stroke="rgb(66, 66, 66)" stroke-width="1px" opacity="0.25"></line><line x1="64.11833894061387" y1="0" x2="64.11833894061387" y2="176.921875" fill="rgb(0, 0, 0)" stroke="rgb(66, 66, 66)" stroke-width="1px" opacity="0.25"></line><line x1="88.97861008689412" y1="0" x2="88.97861008689412" y2="176.921875" fill="rgb(0, 0, 0)" stroke="rgb(66, 66, 66)" stroke-width="1px" opacity="0.25"></line><line x1="113.83888123317436" y1="0" x2="113.83888123317436" y2="176.921875" fill="rgb(0, 0, 0)" stroke="rgb(66, 66, 66)" stroke-width="1px" opacity="0.25"></line><line x1="138.6991523794546" y1="0" x2="138.6991523794546" y2="176.921875" fill="rgb(0, 0, 0)" stroke="rgb(66, 66, 66)" stroke-width="1px" opacity="0.25"></line><line x1="163.55942352573484" y1="0" x2="163.55942352573484" y2="176.921875" fill="rgb(0, 0, 0)" stroke="rgb(66, 66, 66)" stroke-width="1px" opacity="0.25"></line><line x1="188.41969467201508" y1="0" x2="188.41969467201508" y2="176.921875" fill="rgb(0, 0, 0)" stroke="rgb(66, 66, 66)" stroke-width="1px" opacity="0.25"></line><line x1="213.27996581829535" y1="0" x2="213.27996581829535" y2="176.921875" fill="rgb(0, 0, 0)" stroke="rgb(66, 66, 66)" stroke-width="1px" opacity="0.25"></line><line x1="238.1402369645756" y1="0" x2="238.1402369645756" y2="176.921875" fill="rgb(0, 0, 0)" stroke="rgb(66, 66, 66)" stroke-width="1px" opacity="0.25"></line><line x1="263.00050811085583" y1="0" x2="263.00050811085583" y2="176.921875" fill="rgb(0, 0, 0)" stroke="rgb(66, 66, 66)" stroke-width="1px" opacity="0.25"></line><line x1="287.8607792571361" y1="0" x2="287.8607792571361" y2="176.921875" fill="rgb(0, 0, 0)" stroke="rgb(66, 66, 66)" stroke-width="1px" opacity="0.25"></line></g><g><line x1="0" y1="164.819030053469" x2="288.828125" y2="164.819030053469" fill="rgb(0, 0, 0)" stroke="rgb(66, 66, 66)" stroke-width="1px" opacity="0.25"></line><line x1="0" y1="149.3658677200982" x2="288.828125" y2="149.3658677200982" fill="rgb(0, 0, 0)" stroke="rgb(66, 66, 66)" stroke-width="1px" opacity="0.25"></line><line x1="0" y1="133.9127053867274" x2="288.828125" y2="133.9127053867274" fill="rgb(0, 0, 0)" stroke="rgb(66, 66, 66)" stroke-width="1px" opacity="0.25"></line><line x1="0" y1="118.45954305335661" x2="288.828125" y2="118.45954305335661" fill="rgb(0, 0, 0)" stroke="rgb(66, 66, 66)" stroke-width="1px" opacity="0.25"></line><line x1="0" y1="103.00638071998581" x2="288.828125" y2="103.00638071998581" fill="rgb(0, 0, 0)" stroke="rgb(66, 66, 66)" stroke-width="1px" opacity="0.25"></line><line x1="0" y1="87.55321838661503" x2="288.828125" y2="87.55321838661503" fill="rgb(0, 0, 0)" stroke="rgb(66, 66, 66)" stroke-width="1px" opacity="0.25"></line><line x1="0" y1="72.10005605324424" x2="288.828125" y2="72.10005605324424" fill="rgb(0, 0, 0)" stroke="rgb(66, 66, 66)" stroke-width="1px" opacity="0.25"></line><line x1="0" y1="56.64689371987343" x2="288.828125" y2="56.64689371987343" fill="rgb(0, 0, 0)" stroke="rgb(66, 66, 66)" stroke-width="1px" opacity="0.25"></line><line x1="0" y1="41.19373138650264" x2="288.828125" y2="41.19373138650264" fill="rgb(0, 0, 0)" stroke="rgb(66, 66, 66)" stroke-width="1px" opacity="0.25"></line><line x1="0" y1="25.740569053131836" x2="288.828125" y2="25.740569053131836" fill="rgb(0, 0, 0)" stroke="rgb(66, 66, 66)" stroke-width="1px" opacity="0.25"></line><line x1="0" y1="10.287406719761027" x2="288.828125" y2="10.287406719761027" fill="rgb(0, 0, 0)" stroke="rgb(66, 66, 66)" stroke-width="1px" opacity="0.25"></line></g></g></g><g><g><line x1="0" y1="180.27219238683978" x2="288.828125" y2="180.27219238683978" fill="rgb(0, 0, 0)" stroke="rgb(153, 153, 153)" stroke-width="1.5px"></line></g></g><g><g><line x1="14.397796648053376" y1="0" x2="14.397796648053376" y2="176.921875" fill="rgb(0, 0, 0)" stroke="rgb(153, 153, 153)" stroke-width="1.5px"></line></g></g><g><g><g><g><g><path stroke="rgb(255, 112, 67)" stroke-width="2px" d="M15.006873291137241,7.188004832228059L15.628380069794249,20.755275153802227L16.249886848451254,33.8760598124052L16.87139362710826,45.17273927977736L17.492900405765266,53.34761727841234L18.11440718442227,59.4973792780257L18.735913963079277,65.12511902523488L19.35742074173628,69.69889928368707L19.97892752039329,73.66239873420113L20.6004342990503,78.02994546185575L21.221941077707303,81.29599670274717L21.84344785636431,83.43881900229312L22.464954635021318,85.93507665796785L23.08646141367832,87.40715594678329L23.70796819233533,90.16904749853738L24.329474970992333,91.49475949604272L24.95098174964934,92.95959387899053L25.572488528306348,93.85441581617981L26.19399530696335,94.8722903388703L26.81550208562036,97.4994411235591L27.437008864277363,99.54167326278042L28.05851564293437,100.92166107408242L28.680022421591378,102.29722682786567L29.301529200248382,103.78840587000667L29.92303597890539,105.57946241048536L30.544542757562397,106.68648752357642L31.1660495362194,107.41211355041068L31.787556314876408,109.02617923347579L32.40906309353341,110.91463383070611L33.03056987219042,111.27934451234773L33.65207665084743,111.39428221437966L34.273583429504434,113.08025107444034L34.895090208161434,114.53137734810531L35.51659698681844,115.86781573209541L36.13810376547545,117.39398862783608L36.75961054413246,118.53499226466026L37.381117322789464,118.96981589506512L38.00262410144647,120.05039412775628L38.62413088010347,121.73215073963836L39.24563765876049,122.06737002385195L39.86714443741749,122.81344030374726L40.488651216074494,124.1574667195656L41.110157994731495,126.14305871780336L41.73166477338851,126.85160207004478L42.35317155204551,127.52840404926718L42.97467833070252,129.06545020312043L43.596185109359524,130.365132898144L44.21769188801653,130.90781224652397L44.83919866667353,132.1037356901097L45.46070544533055,133.01705062643256L46.08221222398755,134.17140882373735L46.703719002644554,135.1788323926484L47.325225781301555,136.1073815156205L47.94673255995857,137.1719764696666L48.56823933861557,138.55642896077535L49.18974611727258,139.2712064538706L49.81125289592959,140.2304825390568L50.43275967458659,140.41789944568913L51.0542664532436,141.42572341246543L51.67577323190061,142.0929637470118L52.297280010557614,143.04048027656643L52.918786789214614,143.81184982997794L53.54029356787163,144.04348594537058L54.16180034652863,144.33493494972333L54.78330712518564,144.75815798379764L55.40481390384264,145.46363297595323L56.02632068249965,146.29060626064947L56.64782746115665,146.74870908954767L57.26933423981366,147.17346001837973L57.89084101847067,147.91830408465083L58.512347797127674,148.61256294164278L59.133854575784675,148.70547276137387L59.75536135444169,149.02954130452852L60.37686813309869,149.3857508339185L60.9983749117557,149.88913050041387L61.6198816904127,150.39242630931517L62.24138846906971,150.609636779107L62.86289524772671,151.59648111336787L63.48440202638372,151.25692332921696L64.10590880504073,151.1643565975252L64.72741558369773,151.969747506381L65.34892236235474,152.87514168446174L65.97042914101175,153.0806530641211L66.59193591966874,153.36255885826836L67.21344269832576,153.74443502965173L67.83494947698276,153.8444787038708L68.45645625563976,153.97996625016995L69.07796303429679,154.24131799308168L69.69946981295378,154.4724602151277L70.32097659161079,154.5064316188791L70.9424833702678,154.71642804171134L71.5639901489248,155.087244420868L72.18549692758181,155.1301816273681L72.80700370623882,155.50733790939003L73.42851048489582,155.7225114767264L74.05001726355282,155.69123620265032L74.67152404220984,155.91436144954233L75.29303082086685,156.28692257082008L75.91453759952384,156.49692765361138L76.53604437818085,156.7550228221591L77.15755115683787,156.94100967254894L77.77905793549486,156.9713846105233L78.40056471415187,157.29212088140048L79.02207149280886,157.5200196282097L79.64357827146588,157.8663083178409L80.26508505012289,157.86421523846744L80.88659182877988,158.23213296106064L81.50809860743689,158.0639943016151L82.12960538609391,158.59457793615454L82.75111216475091,158.46733159711061L83.37261894340791,158.92375226953757L83.99412572206492,158.64234802279915L84.61563250072193,158.76445814677214L85.23713927937894,158.79874594707138L85.85864605803594,158.98432462783225L86.48015283669294,159.15152798490251L87.10165961534996,159.15203621660658L87.72316639400697,159.43622453671452L88.34467317266396,159.20915968576506L88.96617995132098,159.0505569466881L89.58768672997799,159.41262782982713L90.20919350863498,159.5317347853908L90.83070028729199,159.6355371652802L91.45220706594901,160.1595763870749L92.073713844606,160.36428636707015L92.69522062326301,160.55783013353954L93.31672740192,160.38740648500752L93.93823418057703,160.45492765001208L94.55974095923403,160.73321076838735L95.18124773789103,160.74858925161456L95.80275451654803,161.06193355306198L96.42426129520506,160.8750839591013L97.04576807386205,161.0088478256103L97.66727485251906,161.40498232805805L98.28878163117606,161.20640119756834L98.91028840983307,161.51447717234493L99.53179518849008,161.43046173448786L100.15330196714709,161.40224728205476L100.77480874580408,161.3552720517095L101.3963155244611,161.51563987017414L102.01782230311811,161.54680788686775L102.6393290817751,161.46974352259147L103.26083586043211,161.40328995574524L103.88234263908913,161.2627658500705L104.50384941774612,161.30236937884635L105.12535619640313,161.366151972501L105.74686297506014,161.4183367485939L106.36836975371715,161.91460984630575L106.98987653237415,161.760821940799L107.61138331103116,162.03773382067524L108.23289008968817,161.75794961616202L108.85439686834518,162.13941135547074L109.47590364700217,162.29584681889295L110.09741042565918,162.4900915676199L110.7189172043162,162.49446189518193L111.34042398297319,162.83456743534217L111.9619307616302,162.74133046286883L112.5834375402872,162.72297019580802L113.20494431894421,162.75520520094295L113.82645109760122,162.70831777069765L114.44795787625823,162.8174889034866L115.06946465491522,162.7886642151402L115.69097143357224,162.86719490718127L116.31247821222925,163.05040753497173L116.93398499088624,163.05820527281548L117.55549176954325,163.0117777777652L118.17699854820027,163.17364032500524L118.79850532685727,163.04387322092953L119.42001210551427,162.8737925615397L120.04151888417128,163.0831812021759L120.66302566282829,163.0479246936204L121.2845324414853,163.14997954887403L121.9060392201423,163.02564334482932L122.5275459987993,162.99510978595706L123.14905277745632,163.05289851181817L123.77055955611333,163.4252627945546L124.39206633477032,163.5736151658567L125.01357311342733,163.56176139299276L125.63507989208433,163.4330052842348L126.25658667074134,163.42941363047632L126.87809344939835,163.55534636070058L127.49960022805536,163.51939587872295L128.12110700671238,163.46337903028936L128.74261378536937,163.8831504112828L129.36412056402636,164.01389164734186L129.9856273426834,163.77355604040184L130.60713412134038,163.84566576791005L131.2286408999974,163.83833988997893L131.8501476786544,163.78662294421727L132.47165445731142,163.92208217708674L133.0931612359684,163.9598993083804L133.7146680146254,163.89837706191906L134.33617479328242,163.80757269014524L134.95768157193945,164.10125011243963L135.57918835059644,164.3580156262361L136.20069512925343,164.2304435946435L136.82220190791045,164.1551737691357L137.44370868656745,164.0664162244455L138.06521546522447,163.92794565545984L138.68672224388146,164.03628083032245L139.30822902253846,164.2533145204785L139.92973580119548,164.3284932814409L140.5512425798525,164.30540237457416L141.1727493585095,164.40511978870936L141.79425613716649,164.40191058369507L142.4157629158235,164.4605829304351L143.0372696944805,164.499835867805L143.65877647313752,164.6094197495014L144.28028325179451,164.57523793716882L144.9017900304515,164.503550407213L145.52329680910853,164.81089471099818L146.14480358776555,164.6068297101619L146.76631036642254,164.74801216737228L147.38781714507957,164.8260852584862L148.00932392373656,164.85105069393978L148.63083070239355,164.91883226225167L149.25233748105057,164.9798414184335L149.87384425970757,165.163817910228L150.4953510383646,165.00739218614137L151.1168578170216,164.8003382914761L151.7383645956786,164.95150664718588L152.3598713743356,164.7422555739981L152.98137815299262,164.74740529669828L153.6028849316496,164.8192818640433L154.2243917103066,165.0106040904411L154.84589848896363,164.89678116298717L155.46740526762065,165.05054097301525L156.08891204627764,164.95581894959042L156.71041882493466,165.09908120937945L157.33192560359166,165.27561989988965L157.95343238224865,165.19643822144562L158.57493916090564,165.035632198579L159.19644593956266,165.09750484656442L159.81795271821966,165.21343882491794L160.4394594968767,165.37471623851698L161.0609662755337,165.3872024620404L161.6824730541907,165.38985484051284L162.3039798328477,165.017398801228L162.9254866115047,165.21438587790038L163.5469933901617,165.19461964490884L164.1685001688187,165.19119561859762L164.79000694747572,165.13721990903173L165.41151372613274,165.36030760455915L166.03302050478973,165.53601456904553L166.65452728344675,165.66899148184177L167.27603406210375,165.75345257233616L167.89754084076074,165.54307988552304L168.51904761941776,165.49523237365887L169.14055439807476,165.61995004619936L169.76206117673178,165.52444758150753L170.3835679553888,165.3460696430878L171.0050747340458,165.3213791648011L171.62658151270278,165.39566511542137L172.2480882913598,165.46163936705838L172.8695950700168,165.44257781734498L173.4911018486738,165.40891291834672L174.11260862733081,165.61336130743652L174.73411540598784,165.53125900314956L175.35562218464483,165.6670702755187L175.97712896330185,165.79531337520885L176.59863574195884,165.9932891800749L177.22014252061584,165.74172026789475L177.84164929927286,165.87222650494695L178.46315607792985,165.91786689929828L179.08466285658685,166.04072432776175L179.7061696352439,165.99751179176835L180.3276764139009,165.9434425052471L180.94918319255788,166.09477532566115L181.5706899712149,166.1160385248599L182.1921967498719,165.71172992486282L182.8137035285289,165.7461343208074L183.4352103071859,165.80497691964618L184.0567170858429,165.824981954351L184.67822386449993,165.75322009493863L185.29973064315695,166.06425524200995L185.92123742181394,166.11263692178107L186.54274420047093,166.18998211531837L187.16425097912796,166.1153275091201L187.78575775778495,166.01175094320791L188.40726453644194,166.08587882687553L189.028771315099,166.22895581638275L189.650278093756,166.03752737980636L190.27178487241298,166.2174708026274L190.89329165106997,166.38647868674983L191.514798429727,166.43534131535463L192.136305208384,166.53489540655832L192.75781198704098,166.35425492965732L193.379318765698,166.51822025769243L194.00082554435502,166.4564074798668L194.62233232301202,166.51811534149144L195.24383910166904,166.38331207700185L195.86534588032603,166.1488920273985L196.48685265898303,166.2898681137261L197.10835943764005,166.3176963398828L197.72986621629704,166.36570033278645L198.35137299495403,166.29364628314582L198.97287977361108,166.22608996607886L199.59438655226808,166.25895107406205L200.21589333092507,166.2927809910061L200.8374001095821,166.27503832678408L201.45890688823908,166.41422761600916L202.08041366689608,166.65798474468497L202.7019204455531,166.57083314128982L203.3234272242101,166.67459804302993L203.94493400286711,166.81792125701176L204.56644078152414,166.45109233051983L205.18794756018113,166.5319883424627L205.80945433883812,166.4634262540098L206.43096111749514,166.61014976580077L207.05246789615214,166.69715594731463L207.67397467480913,166.48346359082961L208.29548145346618,166.42385253677372L208.91698823212317,166.42876909797033L209.53849501078017,166.43452464513447L210.1600017894372,166.63193951334176L210.78150856809418,166.6991432133916L211.40301534675118,166.66700036571208L212.0245221254082,166.71072023063053L212.6460289040652,166.7631066838641L213.2675356827222,166.63523588414043L213.88904246137923,166.68482436298035L214.51054924003623,166.9248398079447L215.13205601869322,166.87885508819798L215.75356279735024,166.79179609152987L216.37506957600723,166.65974632649255L216.99657635466423,166.8176637760525L217.61808313332122,166.74344760012553L218.23958991197827,166.7594770789474L218.86109669063526,166.66292875374776L219.4826034692923,166.6539560950774L220.10411024794928,166.63828265184515L220.72561702660627,166.81360215143178L221.34712380526327,166.78704115038354L221.9686305839203,166.63236545524646L222.59013736257728,166.81841938701766L223.2116441412343,167.07248897779843L223.83315091989132,167.18466893285185L224.45465769854832,167.1298306115671L225.0761644772053,166.9242425721578L225.69767125586233,166.92255708109823L226.31917803451933,167.01006113809512L226.94068481317632,167.13155800961485L227.56219159183337,167.2608557184888L228.18369837049036,167.11870005738615L228.80520514914735,167.07671769631233L229.42671192780438,167.08500816519103L230.04821870646137,166.95954412723694L230.66972548511836,166.90340575209143L231.29123226377538,166.96732637747863L231.91273904243238,166.96272325410027L232.5342458210894,166.9421007129157L233.15575259974642,166.9691950164432L233.77725937840341,167.01273583777072L234.3987661570604,167.0227068856559L235.02027293571743,167.05610731023452L235.64177971437442,167.0912767686533L236.26328649303142,167.1821682338234L236.88479327168844,167.56900445905336L237.50630005034546,167.44742104894377L238.12780682900245,167.34185831441184L238.74931360765947,167.29641680243992L239.37082038631647,167.15278077411708L239.99232716497346,167.23316408603046L240.61383394363048,167.2229473863573L241.23534072228748,167.19188648738506L241.85684750094447,167.1475402954807L242.47835427960152,167.30048335917147L243.0998610582585,167.15972110626498L243.7213678369155,167.06168058405171L244.34287461557253,167.19529480443663L244.96438139422952,167.11452758971774L245.5858881728865,167.23537056138133L246.2073949515435,167.22585092419922L246.82890173020056,167.1395096188309L247.45040850885755,167.16787335800308L248.07191528751457,167.3210051567575L248.69342206617156,167.30391031037058L249.31492884482856,167.22717259322323L249.93643562348555,167.34412017938567L250.55794240214257,167.39953855193502L251.17944918079957,167.23837025867084L251.80095595945662,167.24242625142796L252.4224627381136,167.255284172829L253.0439695167706,167.38950469281698L253.6654762954276,167.22164468797655L254.28698307408462,167.38715633935612L254.9084898527416,167.0935318764986L255.5299966313986,167.25660072676777L256.1515034100556,167.37097128258324L256.77301018871265,167.48838323699644L257.39451696736967,167.61443003740803L258.01602374602663,167.5888627147396L258.63753052468365,167.45860051977465L259.2590373033407,167.5723908007345L259.88054408199764,167.62458382919883L260.50205086065466,167.49388301165243L261.1235576393117,167.66692433789606L261.7450644179687,167.5869862548186L262.3665711966257,167.7865991841624L262.9880779752827,167.59089925831788L263.6095847539397,167.6048515974675L264.2310915325967,167.65867278488912L264.8525983112537,167.59593488455027L265.4741050899107,167.4602813764013L266.09561186856774,167.3230635185465L266.71711864722477,167.47711930012818L267.33862542588173,167.60497981825193L267.96013220453875,167.56988113145076L268.5816389831958,167.48030920701993L269.20314576185274,167.36558777646897L269.82465254050976,167.5913771738765L270.4461593191668,167.69369975244786L271.0676660978238,167.48115758522178L271.68917287648077,167.6489739043007L272.3106796551378,167.6560510860035L272.9321864337948,167.57631560039064L273.5536932124518,167.60032179242373L274.1751999911088,167.57209791360242L274.7967067697658,167.66279595856287" style="fill: none;" fill="none"></path></g></g></g></g><g opacity="0.2"><g><g><g><path stroke="rgb(255, 112, 67)" stroke-width="2px" d="M15.006873291137241,7.188004832228059L15.628380069794249,28.895637346746735L16.249886848451254,46.47201308466405L16.87139362710826,58.45763433340702L17.492900405765266,64.02073799343022L18.11440718442227,68.0047140378108L18.735913963079277,73.17287690757995L19.35742074173628,76.36751480880086L19.97892752039329,79.50779055357607L20.6004342990503,84.51524334105703L21.221941077707303,86.16545071971075L21.84344785636431,86.64139130728495L22.464954635021318,89.6713124271235L23.08646141367832,89.61239092343268L23.70796819233533,94.30863832632683L24.329474970992333,93.48239249748808L24.95098174964934,95.1562255845937L25.572488528306348,95.19642152677079L26.19399530696335,96.39894705996744L26.81550208562036,101.43992716860437L27.437008864277363,102.60490947074838L28.05851564293437,102.99159738194864L28.680022421591378,104.36054830039427L29.301529200248382,106.02515676878076L29.92303597890539,108.26603449114013L30.544542757562397,108.34702047225652L31.1660495362194,108.50055073398397L31.787556314876408,111.44727528010245L32.40906309353341,113.74731398701805L33.03056987219042,111.8264103332401L33.65207665084743,111.56668872931294L34.273583429504434,115.60920402907998L34.895090208161434,116.70806658536742L35.51659698681844,117.87247321235422L36.13810376547545,119.68324790585713L36.75961054413246,120.24649769047451L37.381117322789464,119.622051333945L38.00262410144647,121.67126146676203L38.62413088010347,124.25478564809441L39.24563765876049,122.57019894905208L39.86714443741749,123.9325457220942L40.488651216074494,126.17350634167619L41.110157994731495,129.1214467137267L41.73166477338851,127.91441709810002L42.35317155204551,128.54360701792496L42.97467833070252,131.37101943366056L43.596185109359524,132.31465694055774L44.21769188801653,131.72183126906347L44.83919866667353,133.897620855448L45.46070544533055,134.3870230308984L46.08221222398755,135.90294611968054L46.703719002644554,136.6899677460076L47.325225781301555,137.50020520007465L47.94673255995857,138.7688689007329L48.56823933861557,140.6331076974363L49.18974611727258,140.3433726935128L49.81125289592959,141.66939666683555L50.43275967458659,140.69902480563755L51.0542664532436,142.93745936262968L51.67577323190061,143.09382424883125L52.297280010557614,144.4617550708983L52.918786789214614,144.9689041600952L53.54029356787163,144.3909401184595L54.16180034652863,144.77210845625243L54.78330712518564,145.39299253490913L55.40481390384264,146.5218454641866L56.02632068249965,147.53106618769382L56.64782746115665,147.43586333289497L57.26933423981366,147.81058641162775L57.89084101847067,149.03557018405752L58.512347797127674,149.65395122713068L59.133854575784675,148.8448374909705L59.75536135444169,149.51564411926051L60.37686813309869,149.9200651280035L60.9983749117557,150.64420000015687L61.6198816904127,151.14737002266713L62.24138846906971,150.93545248379476L62.86289524772671,153.0767476147592L63.48440202638372,150.74758665299063L64.10590880504073,151.02550649998753L64.72741558369773,153.17783386966477L65.34892236235474,154.23323295158278L65.97042914101175,153.38892013361013L66.59193591966874,153.78541754948927L67.21344269832576,154.3172492867267L67.83494947698276,153.99454421519948L68.45645625563976,154.18319756961867L69.07796303429679,154.6333456074492L69.69946981295378,154.8191735481968L70.32097659161079,154.5573887245062L70.9424833702678,155.03142267595973L71.5639901489248,155.64346898960292L72.18549692758181,155.19458743711826L72.80700370623882,156.07307233242292L73.42851048489582,156.04527182773091L74.05001726355282,155.6443232915362L74.67152404220984,156.24904931988033L75.29303082086685,156.8457642527367L75.91453759952384,156.8119352777984L76.53604437818085,157.14216557498068L77.15755115683787,157.21998994813367L77.77905793549486,157.01694701748485L78.40056471415187,157.77322528771623L79.02207149280886,157.86186774842352L79.64357827146588,158.38574135228774L80.26508505012289,157.8610756194072L80.88659182877988,158.78400954495044L81.50809860743689,157.81178631244686L82.12960538609391,159.39045338796367L82.75111216475091,158.27646208854475L83.37261894340791,159.60838327817794L83.99412572206492,158.22024165269156L84.61563250072193,158.9476233327316L85.23713927937894,158.85017764752024L85.85864605803594,159.2626926489736L86.48015283669294,159.40233302050788L87.10165961534996,159.1527985641627L87.72316639400697,159.86250701687638L88.34467317266396,158.8685624093409L88.96617995132098,158.8126528380726L89.58768672997799,159.95573415453572L90.20919350863498,159.7103952187363L90.83070028729199,159.79124073511434L91.45220706594901,160.94563521976693L92.073713844606,160.671351337063L92.69522062326301,160.84814578324364L93.31672740192,160.13177101220944L93.93823418057703,160.55620939751898L94.55974095923403,161.15063544595026L95.18124773789103,160.77165697645538L95.80275451654803,161.53195000523314L96.42426129520506,160.59480956816026L97.04576807386205,161.2094936253738L97.66727485251906,161.99918408172968L98.28878163117606,160.90852950183375L98.91028840983307,161.9765911345098L99.53179518849008,161.30443857770223L100.15330196714709,161.35992560340515L100.77480874580408,161.28480920619168L101.3963155244611,161.7561915978711L102.01782230311811,161.59355991190813L102.6393290817751,161.35414697617705L103.26083586043211,161.30360960547586L103.88234263908913,161.05197969155844L104.50384941774612,161.3617746720101L105.12535619640313,161.461825862983L105.74686297506014,161.49661391273324L106.36836975371715,162.65901949287357L106.98987653237415,161.53014008253885L107.61138331103116,162.45310164048965L108.23289008968817,161.33827330939215L108.85439686834518,162.7116039644338L109.47590364700217,162.5305000140263L110.09741042565918,162.7814586907104L110.7189172043162,162.50101738652492L111.34042398297319,163.3447257455825L111.9619307616302,162.6014750041588L112.5834375402872,162.69542979521682L113.20494431894421,162.80355770864537L113.82645109760122,162.63798662532972L114.44795787625823,162.98124560267001L115.06946465491522,162.74542718262057L115.69097143357224,162.98499094524283L116.31247821222925,163.32522647665746L116.93398499088624,163.06990187958107L117.55549176954325,162.94213653518975L118.17699854820027,163.41643414586528L118.79850532685727,162.84922256481596L119.42001210551427,162.61867157245499L120.04151888417128,163.3972641631302L120.66302566282829,162.9950399307871L121.2845324414853,163.30306183175452L121.9060392201423,162.83913903876226L122.5275459987993,162.9493094476486L123.14905277745632,163.13958160060986L123.77055955611333,163.98380921865925L124.39206633477032,163.79614372280983L125.01357311342733,163.54398073369688L125.63507989208433,163.23987112109782L126.25658667074134,163.4240261498386L126.87809344939835,163.744245456037L127.49960022805536,163.4654701557565L128.12110700671238,163.37935375763902L128.74261378536937,164.51280748277293L129.36412056402636,164.21000350143046L129.9856273426834,163.41305262999182L130.60713412134038,163.95383035917234L131.2286408999974,163.82735107308224L131.8501476786544,163.70904752557482L132.47165445731142,164.12527102639095L133.0931612359684,164.0166250053209L133.7146680146254,163.80609369222708L134.33617479328242,163.67136613248445L134.95768157193945,164.54176624588126L135.57918835059644,164.74316389693078L136.20069512925343,164.03908554725461L136.82220190791045,164.042269030874L137.44370868656745,163.93327990741025L138.06521546522447,163.7202398019813L138.68672224388146,164.19878359261642L139.30822902253846,164.57886505571253L139.92973580119548,164.44126142288448L140.5512425798525,164.27076601427405L141.1727493585095,164.55469590991223L141.79425613716649,164.3970967761736L142.4157629158235,164.54859145054513L143.0372696944805,164.55871527385986L143.65877647313752,164.77379557204594L144.28028325179451,164.52396521866999L144.9017900304515,164.3960191122793L145.52329680910853,165.27191116667592L146.14480358776555,164.30073220890748L146.76631036642254,164.95978585318787L147.38781714507957,164.94319489515706L148.00932392373656,164.88849884712016L148.63083070239355,165.0205046147195L149.25233748105057,165.07135515270622L149.87384425970757,165.4397826479198L150.4953510383646,164.7727536000114L151.1168578170216,164.48975744947822L151.7383645956786,165.17825918075056L152.3598713743356,164.42837896421642L152.98137815299262,164.75512988074857L153.6028849316496,164.92709671506083L154.2243917103066,165.29758743003782L154.84589848896363,164.72604677180627L155.46740526762065,165.2811806880573L156.08891204627764,164.81373591445322L156.71041882493466,165.31397459906296L157.33192560359166,165.54042793565492L157.95343238224865,165.0776657037796L158.57493916090564,164.79442316427912L159.19644593956266,165.19031381854256L159.81795271821966,165.38733979244822L160.4394594968767,165.61663235891552L161.0609662755337,165.40593179732548L161.6824730541907,165.39383340822155L162.3039798328477,164.4587147423008L162.9254866115047,165.5098664929089L163.5469933901617,165.16497029542154L164.1685001688187,165.18605957913078L164.79000694747572,165.0562563446829L165.41151372613274,165.69493914785025L166.03302050478973,165.7995750157752L166.65452728344675,165.86845685103606L167.27603406210375,165.88014420807775L167.89754084076074,165.2275208553034L168.51904761941776,165.42346110586254L169.14055439807476,165.8070265550101L169.76206117673178,165.38119388446984L170.3835679553888,165.07850273545816L171.0050747340458,165.28434344737104L171.62658151270278,165.5070940413518L172.2480882913598,165.5606007445139L172.8695950700168,165.41398549277488L173.4911018486738,165.3584155698493L174.11260862733081,165.92003389107117L174.73411540598784,165.4081055467191L175.35562218464483,165.87078718407244L175.97712896330185,165.98767802474407L176.59863574195884,166.29025288737398L177.22014252061584,165.36436689962457L177.84164929927286,166.06798586052525L178.46315607792985,165.98632749082526L179.08466285658685,166.22501047045697L179.7061696352439,165.93269298777824L180.3276764139009,165.86233857546523L180.94918319255788,166.32177455628218L181.5706899712149,166.14793332365804L182.1921967498719,165.1052670248672L182.8137035285289,165.7977409147243L183.4352103071859,165.89324081790429L184.0567170858429,165.85498950640826L184.67822386449993,165.64557730582007L185.29973064315695,166.53080796261696L185.92123742181394,166.18520944143776L186.54274420047093,166.3059999056243L187.16425097912796,166.00334559982272L187.78575775778495,165.85638609433965L188.40726453644194,166.1970706523769L189.028771315099,166.44357130064355L189.650278093756,165.75038472494182L190.27178487241298,166.48738593685886L190.89329165106997,166.6399905129335L191.514798429727,166.50863525826182L192.136305208384,166.68422654336388L192.75781198704098,166.08329421430582L193.379318765698,166.7641682497451L194.00082554435502,166.3636883131284L194.62233232301202,166.61067713392836L195.24383910166904,166.18110718026747L195.86534588032603,165.79726195299352L196.48685265898303,166.50133224321743L197.10835943764005,166.35943867911786L197.72986621629704,166.4377063221419L198.35137299495403,166.1855652086849L198.97287977361108,166.12475549047844L199.59438655226808,166.3082427360368L200.21589333092507,166.34352586642225L200.8374001095821,166.24842433045103L201.45890688823908,166.62301154984675L202.08041366689608,167.02362043769867L202.7019204455531,166.44010573619715L203.3234272242101,166.83024539564005L203.94493400286711,167.0329060779845L204.56644078152414,165.900848940782L205.18794756018113,166.65333236037702L205.80945433883812,166.3605831213304L206.43096111749514,166.83023503348724L207.05246789615214,166.82766521958544L207.67397467480913,166.16292505610213L208.29548145346618,166.33443595568988L208.91698823212317,166.43614393976523L209.53849501078017,166.4431579658807L210.1600017894372,166.92806181565265L210.78150856809418,166.79994876346638L211.40301534675118,166.6187860941928L212.0245221254082,166.77630002800817L212.6460289040652,166.84168636371447L213.2675356827222,166.4434296845549L213.88904246137923,166.75920708124028L214.51054924003623,167.28486297539118L215.13205601869322,166.80987800857795L215.75356279735024,166.66120759652767L216.37506957600723,166.46167167893657L216.99657635466423,167.05453995039247L217.61808313332122,166.63212333623508L218.23958991197827,166.78352129718022L218.86109669063526,166.51810626594823L219.4826034692923,166.64049710707187L220.10411024794928,166.61477248699674L220.72561702660627,167.07658140081173L221.34712380526327,166.74719964881118L221.9686305839203,166.40035191254083L222.59013736257728,167.09750028467448L223.2116441412343,167.45359336396962L223.83315091989132,167.35293886543198L224.45465769854832,167.04757312963991L225.0761644772053,166.61586051304388L225.69767125586233,166.92002884450895L226.31917803451933,167.1413172235904L226.94068481317632,167.31380331689448L227.56219159183337,167.45480228179977L228.18369837049036,166.90546656573213L228.80520514914735,167.01374415470158L229.42671192780438,167.09744386850906L230.04821870646137,166.77134807030583L230.66972548511836,166.8191981893732L231.29123226377538,167.06320731555942L231.91273904243238,166.95581856903272L232.5342458210894,166.91116690113884L233.15575259974642,167.00983647173442L233.77725937840341,167.07804706976202L234.3987661570604,167.0376634574837L235.02027293571743,167.10620794710243L235.64177971437442,167.14403095628148L236.26328649303142,167.3185054315786L236.88479327168844,168.1492587968983L237.50630005034546,167.26504593377936L238.12780682900245,167.18351421261394L238.74931360765947,167.22825453448203L239.37082038631647,166.93732673163282L239.99232716497346,167.3537390539005L240.61383394363048,167.2076223368476L241.23534072228748,167.14529513892674L241.85684750094447,167.08102100762417L242.47835427960152,167.52989795470756L243.0998610582585,166.94857772690534L243.7213678369155,166.9146198007318L244.34287461557253,167.39571613501397L244.96438139422952,166.99337676763946L245.5858881728865,167.41663501887672L246.2073949515435,167.2115714684261L246.82890173020056,167.00999766077845L247.45040850885755,167.21041896676135L248.07191528751457,167.55070285488915L248.69342206617156,167.27826804079018L249.31492884482856,167.1120660175022L249.93643562348555,167.51954155862936L250.55794240214257,167.48266611075908L251.17944918079957,166.99661781877455L251.80095595945662,167.24851024056363L252.4224627381136,167.27457105493056L253.0439695167706,167.59083547279894L253.6654762954276,166.96985468071586L254.28698307408462,167.63542381642554L254.9084898527416,166.65309518221227L255.5299966313986,167.50120400217156L256.1515034100556,167.54252711630647L256.77301018871265,167.66450116861625L257.39451696736967,167.80350023802538L258.01602374602663,167.55051173073699L258.63753052468365,167.26320722732723L259.2590373033407,167.74307622217424L259.88054408199764,167.70287337189527L260.50205086065466,167.29783178533282L261.1235576393117,167.92648632726156L261.7450644179687,167.46707913020245L262.3665711966257,168.08601857817808L262.9880779752827,167.29734936955109L263.6095847539397,167.62578010619194L264.2310915325967,167.73940456602156L264.8525983112537,167.50182803404198L265.4741050899107,167.2568011141778L266.09561186856774,167.11723673176428L266.71711864722477,167.70820297250074L267.33862542588173,167.79677059543758L267.96013220453875,167.51723310124893L268.5816389831958,167.34595132037376L269.20314576185274,167.19350563064248L269.82465254050976,167.93006126998782L270.4461593191668,167.84718362030486L271.0676660978238,167.16234433438268L271.68917287648077,167.90069838291913L272.3106796551378,167.66666685855768L272.9321864337948,167.45671237197138L273.5536932124518,167.6363310804733L274.1751999911088,167.52976209537047L274.7967067697658,167.79884302600354" style="fill: none;" fill="none"></path></g></g></g></g></g></g><g transform="translate(41, 176)" clip-path="url(#clip_1)"><clipPath id="clip_1"><rect width="288" height="23"></rect></clipPath><g><g><line x1="14.397796648053376" y1="0" x2="14.397796648053376" y2="5" style="visibility: inherit;" fill="rgb(0, 0, 0)" stroke="rgb(204, 204, 204)" stroke-width="1px"></line><line x1="39.25806779433362" y1="0" x2="39.25806779433362" y2="5" style="visibility: inherit;" fill="rgb(0, 0, 0)" stroke="rgb(204, 204, 204)" stroke-width="1px"></line><line x1="64.11833894061387" y1="0" x2="64.11833894061387" y2="5" style="visibility: inherit;" fill="rgb(0, 0, 0)" stroke="rgb(204, 204, 204)" stroke-width="1px"></line><line x1="88.97861008689412" y1="0" x2="88.97861008689412" y2="5" style="visibility: inherit;" fill="rgb(0, 0, 0)" stroke="rgb(204, 204, 204)" stroke-width="1px"></line><line x1="113.83888123317436" y1="0" x2="113.83888123317436" y2="5" style="visibility: inherit;" fill="rgb(0, 0, 0)" stroke="rgb(204, 204, 204)" stroke-width="1px"></line><line x1="138.6991523794546" y1="0" x2="138.6991523794546" y2="5" style="visibility: inherit;" fill="rgb(0, 0, 0)" stroke="rgb(204, 204, 204)" stroke-width="1px"></line><line x1="163.55942352573484" y1="0" x2="163.55942352573484" y2="5" style="visibility: inherit;" fill="rgb(0, 0, 0)" stroke="rgb(204, 204, 204)" stroke-width="1px"></line><line x1="188.41969467201508" y1="0" x2="188.41969467201508" y2="5" style="visibility: inherit;" fill="rgb(0, 0, 0)" stroke="rgb(204, 204, 204)" stroke-width="1px"></line><line x1="213.27996581829535" y1="0" x2="213.27996581829535" y2="5" style="visibility: inherit;" fill="rgb(0, 0, 0)" stroke="rgb(204, 204, 204)" stroke-width="1px"></line><line x1="238.1402369645756" y1="0" x2="238.1402369645756" y2="5" style="visibility: inherit;" fill="rgb(0, 0, 0)" stroke="rgb(204, 204, 204)" stroke-width="1px"></line><line x1="263.00050811085583" y1="0" x2="263.00050811085583" y2="5" style="visibility: inherit;" fill="rgb(0, 0, 0)" stroke="rgb(204, 204, 204)" stroke-width="1px"></line><line x1="287.8607792571361" y1="0" x2="287.8607792571361" y2="5" style="visibility: inherit;" fill="rgb(0, 0, 0)" stroke="rgb(204, 204, 204)" stroke-width="1px"></line></g><g transform="translate(0, 8)"><text x="14.397796648053376" y="0" dx="0em" dy="0.95em" style="text-anchor: middle; visibility: inherit; font-family: Roboto, sans-serif; font-size: 12px; font-weight: 200;" fill="rgb(33, 33, 33)" stroke="none" stroke-width="1px">0</text><text x="39.25806779433362" y="0" dx="0em" dy="0.95em" style="text-anchor: middle; visibility: inherit; font-family: Roboto, sans-serif; font-size: 12px; font-weight: 200;" fill="rgb(33, 33, 33)" stroke="none" stroke-width="1px">2k</text><text x="64.11833894061387" y="0" dx="0em" dy="0.95em" style="text-anchor: middle; visibility: inherit; font-family: Roboto, sans-serif; font-size: 12px; font-weight: 200;" fill="rgb(33, 33, 33)" stroke="none" stroke-width="1px">4k</text><text x="88.97861008689412" y="0" dx="0em" dy="0.95em" style="text-anchor: middle; visibility: inherit; font-family: Roboto, sans-serif; font-size: 12px; font-weight: 200;" fill="rgb(33, 33, 33)" stroke="none" stroke-width="1px">6k</text><text x="113.83888123317436" y="0" dx="0em" dy="0.95em" style="text-anchor: middle; visibility: inherit; font-family: Roboto, sans-serif; font-size: 12px; font-weight: 200;" fill="rgb(33, 33, 33)" stroke="none" stroke-width="1px">8k</text><text x="138.6991523794546" y="0" dx="0em" dy="0.95em" style="text-anchor: middle; visibility: inherit; font-family: Roboto, sans-serif; font-size: 12px; font-weight: 200;" fill="rgb(33, 33, 33)" stroke="none" stroke-width="1px">10k</text><text x="163.55942352573484" y="0" dx="0em" dy="0.95em" style="text-anchor: middle; visibility: inherit; font-family: Roboto, sans-serif; font-size: 12px; font-weight: 200;" fill="rgb(33, 33, 33)" stroke="none" stroke-width="1px">12k</text><text x="188.41969467201508" y="0" dx="0em" dy="0.95em" style="text-anchor: middle; visibility: inherit; font-family: Roboto, sans-serif; font-size: 12px; font-weight: 200;" fill="rgb(33, 33, 33)" stroke="none" stroke-width="1px">14k</text><text x="213.27996581829535" y="0" dx="0em" dy="0.95em" style="text-anchor: middle; visibility: inherit; font-family: Roboto, sans-serif; font-size: 12px; font-weight: 200;" fill="rgb(33, 33, 33)" stroke="none" stroke-width="1px">16k</text><text x="238.1402369645756" y="0" dx="0em" dy="0.95em" style="text-anchor: middle; visibility: inherit; font-family: Roboto, sans-serif; font-size: 12px; font-weight: 200;" fill="rgb(33, 33, 33)" stroke="none" stroke-width="1px">18k</text><text x="263.00050811085583" y="0" dx="0em" dy="0.95em" style="text-anchor: middle; visibility: inherit; font-family: Roboto, sans-serif; font-size: 12px; font-weight: 200;" fill="rgb(33, 33, 33)" stroke="none" stroke-width="1px">20k</text><text x="287.8607792571361" y="0" dx="0em" dy="0.95em" style="text-anchor: middle; visibility: hidden; font-family: Roboto, sans-serif; font-size: 12px; font-weight: 200;" fill="rgb(33, 33, 33)" stroke="none" stroke-width="1px">22k</text></g><line x1="0" y1="0" x2="288.828125" y2="0" fill="rgb(0, 0, 0)" stroke="rgb(204, 204, 204)" stroke-width="1px"></line></g></g></g></g></svg>