<svg viewBox="0 0 330 200" xmlns="http://www.w3.org/2000/svg"><g><g><g><g><g><line x1="50" y1="176.984375" x2="45" y2="176.984375" style="visibility: inherit;" fill="rgb(0, 0, 0)" stroke="rgb(204, 204, 204)" stroke-width="1px"></line><line x1="50" y1="159.28593750000002" x2="45" y2="159.28593750000002" style="visibility: inherit;" fill="rgb(0, 0, 0)" stroke="rgb(204, 204, 204)" stroke-width="1px"></line><line x1="50" y1="141.5875" x2="45" y2="141.5875" style="visibility: inherit;" fill="rgb(0, 0, 0)" stroke="rgb(204, 204, 204)" stroke-width="1px"></line><line x1="50" y1="123.8890625" x2="45" y2="123.8890625" style="visibility: inherit;" fill="rgb(0, 0, 0)" stroke="rgb(204, 204, 204)" stroke-width="1px"></line><line x1="50" y1="106.190625" x2="45" y2="106.190625" style="visibility: inherit;" fill="rgb(0, 0, 0)" stroke="rgb(204, 204, 204)" stroke-width="1px"></line><line x1="50" y1="88.4921875" x2="45" y2="88.4921875" style="visibility: inherit;" fill="rgb(0, 0, 0)" stroke="rgb(204, 204, 204)" stroke-width="1px"></line><line x1="50" y1="70.79375" x2="45" y2="70.79375" style="visibility: inherit;" fill="rgb(0, 0, 0)" stroke="rgb(204, 204, 204)" stroke-width="1px"></line><line x1="50" y1="53.095312500000006" x2="45" y2="53.095312500000006" style="visibility: inherit;" fill="rgb(0, 0, 0)" stroke="rgb(204, 204, 204)" stroke-width="1px"></line><line x1="50" y1="35.396874999999994" x2="45" y2="35.396874999999994" style="visibility: inherit;" fill="rgb(0, 0, 0)" stroke="rgb(204, 204, 204)" stroke-width="1px"></line><line x1="50" y1="17.698437499999997" x2="45" y2="17.698437499999997" style="visibility: inherit;" fill="rgb(0, 0, 0)" stroke="rgb(204, 204, 204)" stroke-width="1px"></line><line x1="50" y1="0" x2="45" y2="0" style="visibility: inherit;" fill="rgb(0, 0, 0)" stroke="rgb(204, 204, 204)" stroke-width="1px"></line></g><g transform="translate(40, 0)"><text x="0" y="176.984375" dx="0em" dy="0.3em" style="text-anchor: end; visibility: hidden; font-family: Roboto, sans-serif; font-size: 12px; font-weight: 200;" fill="rgb(33, 33, 33)" stroke="none" stroke-width="1px">-0.5</text><text x="0" y="159.28593750000002" dx="0em" dy="0.3em" style="text-anchor: end; visibility: inherit; font-family: Roboto, sans-serif; font-size: 12px; font-weight: 200;" fill="rgb(33, 33, 33)" stroke="none" stroke-width="1px">0</text><text x="0" y="141.5875" dx="0em" dy="0.3em" style="text-anchor: end; visibility: hidden; font-family: Roboto, sans-serif; font-size: 12px; font-weight: 200;" fill="rgb(33, 33, 33)" stroke="none" stroke-width="1px">0.5</text><text x="0" y="123.8890625" dx="0em" dy="0.3em" style="text-anchor: end; visibility: inherit; font-family: Roboto, sans-serif; font-size: 12px; font-weight: 200;" fill="rgb(33, 33, 33)" stroke="none" stroke-width="1px">1</text><text x="0" y="106.190625" dx="0em" dy="0.3em" style="text-anchor: end; visibility: hidden; font-family: Roboto, sans-serif; font-size: 12px; font-weight: 200;" fill="rgb(33, 33, 33)" stroke="none" stroke-width="1px">1.5</text><text x="0" y="88.4921875" dx="0em" dy="0.3em" style="text-anchor: end; visibility: inherit; font-family: Roboto, sans-serif; font-size: 12px; font-weight: 200;" fill="rgb(33, 33, 33)" stroke="none" stroke-width="1px">2</text><text x="0" y="70.79375" dx="0em" dy="0.3em" style="text-anchor: end; visibility: hidden; font-family: Roboto, sans-serif; font-size: 12px; font-weight: 200;" fill="rgb(33, 33, 33)" stroke="none" stroke-width="1px">2.5</text><text x="0" y="53.095312500000006" dx="0em" dy="0.3em" style="text-anchor: end; visibility: inherit; font-family: Roboto, sans-serif; font-size: 12px; font-weight: 200;" fill="rgb(33, 33, 33)" stroke="none" stroke-width="1px">3</text><text x="0" y="35.396874999999994" dx="0em" dy="0.3em" style="text-anchor: end; visibility: hidden; font-family: Roboto, sans-serif; font-size: 12px; font-weight: 200;" fill="rgb(33, 33, 33)" stroke="none" stroke-width="1px">3.5</text><text x="0" y="17.698437499999997" dx="0em" dy="0.3em" style="text-anchor: end; visibility: inherit; font-family: Roboto, sans-serif; font-size: 12px; font-weight: 200;" fill="rgb(33, 33, 33)" stroke="none" stroke-width="1px">4</text><text x="0" y="0" dx="0em" dy="0.3em" style="text-anchor: end; visibility: hidden; font-family: Roboto, sans-serif; font-size: 12px; font-weight: 200;" fill="rgb(33, 33, 33)" stroke="none" stroke-width="1px">4.5</text></g><line x1="50" y1="0" x2="50" y2="176.984375" fill="rgb(0, 0, 0)" stroke="rgb(204, 204, 204)" stroke-width="1px"></line></g></g><g transform="translate(50, 0)" clip-path="url(#clip_0)"><clipPath id="clip_0"><rect width="280" height="176"></rect></clipPath><g><g><g><line x1="0" y1="0" x2="0" y2="176.984375" fill="rgb(0, 0, 0)" stroke="rgb(66, 66, 66)" stroke-width="1px" opacity="0.25"></line><line x1="23.333333333333332" y1="0" x2="23.333333333333332" y2="176.984375" fill="rgb(0, 0, 0)" stroke="rgb(66, 66, 66)" stroke-width="1px" opacity="0.25"></line><line x1="46.666666666666664" y1="0" x2="46.666666666666664" y2="176.984375" fill="rgb(0, 0, 0)" stroke="rgb(66, 66, 66)" stroke-width="1px" opacity="0.25"></line><line x1="70" y1="0" x2="70" y2="176.984375" fill="rgb(0, 0, 0)" stroke="rgb(66, 66, 66)" stroke-width="1px" opacity="0.25"></line><line x1="93.33333333333333" y1="0" x2="93.33333333333333" y2="176.984375" fill="rgb(0, 0, 0)" stroke="rgb(66, 66, 66)" stroke-width="1px" opacity="0.25"></line><line x1="116.66666666666667" y1="0" x2="116.66666666666667" y2="176.984375" fill="rgb(0, 0, 0)" stroke="rgb(66, 66, 66)" stroke-width="1px" opacity="0.25"></line><line x1="140" y1="0" x2="140" y2="176.984375" fill="rgb(0, 0, 0)" stroke="rgb(66, 66, 66)" stroke-width="1px" opacity="0.25"></line><line x1="163.33333333333334" y1="0" x2="163.33333333333334" y2="176.984375" fill="rgb(0, 0, 0)" stroke="rgb(66, 66, 66)" stroke-width="1px" opacity="0.25"></line><line x1="186.66666666666666" y1="0" x2="186.66666666666666" y2="176.984375" fill="rgb(0, 0, 0)" stroke="rgb(66, 66, 66)" stroke-width="1px" opacity="0.25"></line><line x1="210" y1="0" x2="210" y2="176.984375" fill="rgb(0, 0, 0)" stroke="rgb(66, 66, 66)" stroke-width="1px" opacity="0.25"></line><line x1="233.33333333333334" y1="0" x2="233.33333333333334" y2="176.984375" fill="rgb(0, 0, 0)" stroke="rgb(66, 66, 66)" stroke-width="1px" opacity="0.25"></line><line x1="256.66666666666663" y1="0" x2="256.66666666666663" y2="176.984375" fill="rgb(0, 0, 0)" stroke="rgb(66, 66, 66)" stroke-width="1px" opacity="0.25"></line><line x1="280" y1="0" x2="280" y2="176.984375" fill="rgb(0, 0, 0)" stroke="rgb(66, 66, 66)" stroke-width="1px" opacity="0.25"></line></g><g><line x1="0" y1="176.984375" x2="280" y2="176.984375" fill="rgb(0, 0, 0)" stroke="rgb(66, 66, 66)" stroke-width="1px" opacity="0.25"></line><line x1="0" y1="159.28593750000002" x2="280" y2="159.28593750000002" fill="rgb(0, 0, 0)" stroke="rgb(66, 66, 66)" stroke-width="1px" opacity="0.25"></line><line x1="0" y1="141.5875" x2="280" y2="141.5875" fill="rgb(0, 0, 0)" stroke="rgb(66, 66, 66)" stroke-width="1px" opacity="0.25"></line><line x1="0" y1="123.8890625" x2="280" y2="123.8890625" fill="rgb(0, 0, 0)" stroke="rgb(66, 66, 66)" stroke-width="1px" opacity="0.25"></line><line x1="0" y1="106.190625" x2="280" y2="106.190625" fill="rgb(0, 0, 0)" stroke="rgb(66, 66, 66)" stroke-width="1px" opacity="0.25"></line><line x1="0" y1="88.4921875" x2="280" y2="88.4921875" fill="rgb(0, 0, 0)" stroke="rgb(66, 66, 66)" stroke-width="1px" opacity="0.25"></line><line x1="0" y1="70.79375" x2="280" y2="70.79375" fill="rgb(0, 0, 0)" stroke="rgb(66, 66, 66)" stroke-width="1px" opacity="0.25"></line><line x1="0" y1="53.095312500000006" x2="280" y2="53.095312500000006" fill="rgb(0, 0, 0)" stroke="rgb(66, 66, 66)" stroke-width="1px" opacity="0.25"></line><line x1="0" y1="35.396874999999994" x2="280" y2="35.396874999999994" fill="rgb(0, 0, 0)" stroke="rgb(66, 66, 66)" stroke-width="1px" opacity="0.25"></line><line x1="0" y1="17.698437499999997" x2="280" y2="17.698437499999997" fill="rgb(0, 0, 0)" stroke="rgb(66, 66, 66)" stroke-width="1px" opacity="0.25"></line><line x1="0" y1="0" x2="280" y2="0" fill="rgb(0, 0, 0)" stroke="rgb(66, 66, 66)" stroke-width="1px" opacity="0.25"></line></g></g></g><g><g><line x1="0" y1="159.28593750000002" x2="280" y2="159.28593750000002" fill="rgb(0, 0, 0)" stroke="rgb(153, 153, 153)" stroke-width="1.5px"></line></g></g><g><g><line x1="23.333333333333332" y1="0" x2="23.333333333333332" y2="176.984375" fill="rgb(0, 0, 0)" stroke="rgb(153, 153, 153)" stroke-width="1.5px"></line></g></g><g><g><g><g><g><path stroke="rgb(255, 112, 67)" stroke-width="2px" d="M23.905,159.28593750000002L24.488333333333333,159.28593750000002L25.07166666666667,159.28593750000002L25.655,159.28593750000002L26.238333333333333,159.28593750000002L26.821666666666665,159.28593750000002L27.405,159.28593750000002L27.988333333333333,159.28593750000002L28.57166666666667,159.28593750000002L29.154999999999998,159.28593750000002L29.738333333333333,159.28593750000002L30.321666666666665,159.28593750000002L30.905,159.28593750000002L31.48833333333333,159.28593750000002L32.071666666666665,159.28593750000002L32.655,159.28593750000002L33.23833333333333,159.28593750000002L33.821666666666665,159.28593750000002L34.405,159.28593750000002L34.98833333333334,159.28593750000002L35.571666666666665,159.28593750000002L36.154999999999994,159.28593750000002L36.73833333333334,159.28593750000002L37.321666666666665,159.28593750000002L37.905,159.28593750000002L38.48833333333333,159.28593750000002L39.07166666666667,159.28593750000002L39.655,159.28593750000002L40.23833333333333,159.28593750000002L40.82166666666667,159.28593750000002L41.405,159.28593750000002L41.98833333333333,159.28593750000002L42.571666666666665,159.28593750000002L43.155,159.28593750000002L43.73833333333334,159.28593750000002L44.321666666666665,159.28593750000002L44.904999999999994,159.28593750000002L45.48833333333334,159.28593750000002L46.071666666666665,159.28593750000002L46.655,159.28593750000002L47.23833333333333,159.28593750000002L47.82166666666667,159.28593750000002L48.405,159.28593750000002L48.98833333333333,159.28593750000002L49.57166666666667,159.28593750000002L50.155,159.28593750000002L50.73833333333333,159.28593750000002L51.321666666666665,159.28593750000002L51.905,159.28593750000002L52.48833333333334,159.28593750000002L53.071666666666665,159.28593750000002L53.654999999999994,159.28593750000002L54.23833333333334,159.28593750000002L54.821666666666665,159.28593750000002L55.405,159.28593750000002L55.98833333333333,159.28593750000002L56.57166666666667,159.28593750000002L57.155,159.28593750000002L57.73833333333333,159.28593750000002L58.32166666666667,159.28593750000002L58.905,159.28593750000002L59.48833333333333,159.28593750000002L60.071666666666665,159.28593750000002L60.655,159.28593750000002L61.23833333333334,159.28593750000002L61.821666666666665,159.28593750000002L62.404999999999994,159.28593750000002L62.98833333333334,159.28593750000002L63.571666666666665,159.28593750000002L64.155,159.28593750000002L64.73833333333333,159.28593750000002L65.32166666666667,159.28593750000002L65.905,159.28593750000002L66.48833333333333,159.28593750000002L67.07166666666667,159.28593750000002L67.655,159.28593750000002L68.23833333333333,159.28593750000002L68.82166666666666,159.28593750000002L69.405,159.28593750000002L69.98833333333333,159.28593750000002L70.57166666666667,159.28593750000002L71.155,159.28593750000002L71.37666666666667,159.28593750000002L71.73833333333333,145.12718750000002L72.32166666666666,136.6319375L72.905,131.5347875L73.48833333333334,128.4764975L74.07166666666667,126.64152349999999L74.655,125.5405391L75.23833333333333,124.87994846000001L75.82166666666666,124.48359407599999L76.405,124.2457814456L76.98833333333334,124.10309386736L77.57166666666667,124.017481320416L78.155,123.9661137922496L78.73833333333333,123.93529327534976L79.32166666666667,123.91680096520986L79.905,123.90570557912591L80.48833333333333,123.89904834747554L81.07166666666666,123.89505400848533L81.655,123.89265740509121L82.23833333333334,123.89121944305471L82.82166666666667,123.89035666583283L83.405,123.88983899949969L83.98833333333333,123.88952839969983L84.57166666666666,123.88934203981988L85.155,123.88923022389193L85.73833333333334,123.88916313433518L86.32166666666667,123.8891228806011L86.905,123.88909872836065L87.48833333333333,123.88908423701639L88.07166666666667,123.88907554220984L88.655,123.88907032532589L89.23833333333333,123.88906719519555L89.82166666666666,123.88906531711731L90.405,123.88906419027039L90.98833333333334,123.88906351416225L91.57166666666667,123.88906310849734L92.155,123.8890628650984L92.73833333333333,123.88906271905904L93.32166666666666,123.88906263143542L93.905,123.88906257886124L94.48833333333334,123.88906254731675L95.07166666666667,123.88906252839004L95.655,123.88906251703403L96.23833333333333,123.88906251022041L96.82166666666667,123.88906250613226L97.405,123.88906250367934L97.98833333333333,123.88906250220762L98.57166666666666,123.88906250132456L99.155,123.88906250079475L99.73833333333334,123.88906250047684L100.32166666666667,123.8890625002861L100.905,123.88906250017166L101.48833333333333,123.889062500103L102.07166666666666,123.88906250006178L102.655,123.88906250003708L103.23833333333334,123.88906250002223L103.82166666666667,123.88906250001335L104.405,123.88906250000801L104.98833333333333,123.88906250000481L105.57166666666667,123.88906250000288L106.155,123.88906250000173L106.73833333333333,123.88906250000103L107.32166666666666,123.88906250000062L107.905,123.88906250000039L108.48833333333334,123.88906250000022L109.07166666666667,123.88906250000014L109.655,123.88906250000007L110.23833333333333,123.88906250000005L110.82166666666666,123.88906250000004L111.405,123.88906250000001L111.98833333333334,123.88906250000001L112.57166666666667,123.8890625L113.155,123.8890625L113.73833333333333,123.8890625L114.32166666666667,123.8890625L114.905,123.8890625L115.48833333333333,123.8890625L116.07166666666666,123.8890625L116.655,123.8890625L117.23833333333334,123.8890625L117.82166666666667,123.8890625L118.405,123.8890625L118.98833333333333,123.8890625L119.57166666666666,123.8890625L120.155,123.8890625L120.59833333333334,123.8890625L120.73833333333334,109.7303125L121.32166666666667,101.2350625L121.905,96.1379125L122.48833333333333,93.07962249999999L123.07166666666667,91.2446485L123.655,90.1436641L124.23833333333333,89.48307346000001L124.82166666666666,89.086719076L125.405,88.8489064456L125.98833333333334,88.70621886736001L126.57166666666667,88.620606320416L127.155,88.56923879224959L127.73833333333333,88.53841827534976L128.32166666666666,88.51992596520986L128.905,88.50883057912591L129.48833333333334,88.50217334747556L130.07166666666666,88.49817900848534L130.655,88.49578240509119L131.23833333333334,88.49434444305471L131.82166666666666,88.49348166583283L132.405,88.49296399949968L132.98833333333332,88.49265339969979L133.57166666666666,88.49246703981989L134.155,88.49235522389192L134.73833333333334,88.49228813433514L135.32166666666666,88.4922478806011L135.905,88.49222372836066L136.48833333333334,88.49220923701638L137.07166666666666,88.49220054220984L137.655,88.49219532532591L138.23833333333334,88.49219219519553L138.82166666666666,88.49219031711733L139.405,88.4921891902704L139.98833333333334,88.49218851416225L140.5716666666667,88.49218810849733L141.155,88.4921878650984L141.73833333333334,88.49218771905905L142.3216666666667,88.49218763143543L142.905,88.49218757886125L143.48833333333334,88.49218754731676L144.07166666666666,88.49218752839005L144.655,88.49218751703403L145.23833333333334,88.49218751022042L145.82166666666666,88.49218750613224L146.405,88.49218750367936L146.98833333333332,88.49218750220761L147.57166666666666,88.49218750132458L148.155,88.49218750079473L148.73833333333332,88.49218750047685L149.3216666666667,88.49218750028611L149.905,88.49218750017165L150.48833333333334,88.492187500103L151.0716666666667,88.49218750006182L151.655,88.49218750003708L152.23833333333334,88.49218750002227L152.82166666666666,88.49218750001336L153.405,88.49218750000801L153.98833333333334,88.49218750000482L154.57166666666666,88.49218750000288L155.155,88.49218750000173L155.73833333333332,88.49218750000104L156.32166666666666,88.49218750000063L156.905,88.49218750000037L157.48833333333332,88.49218750000021L158.0716666666667,88.49218750000011L158.655,88.49218750000009L159.23833333333334,88.49218750000004L159.8216666666667,88.49218750000004L160.405,88.49218750000001L160.98833333333334,88.4921875L161.57166666666666,88.4921875L162.155,88.4921875L162.73833333333334,88.4921875L163.32166666666666,88.4921875L163.905,88.4921875L164.48833333333332,88.4921875L165.07166666666666,88.4921875L165.655,88.4921875L166.23833333333332,88.4921875L166.8216666666667,88.4921875L167.405,88.4921875L167.98833333333334,88.4921875L168.5716666666667,88.4921875L169.155,88.4921875L169.73833333333334,88.4921875L169.82000000000002,88.4921875L170.32166666666666,74.3334375L170.905,65.8381875L171.48833333333334,60.74103749999999L172.07166666666666,57.6827475L172.655,55.84777349999999L173.23833333333332,54.74678909999999L173.82166666666666,54.08619845999998L174.405,53.689844075999964L174.98833333333332,53.452031445599985L175.5716666666667,53.30934386735999L176.155,53.22373132041601L176.73833333333334,53.1723637922496L177.3216666666667,53.14154327534974L177.905,53.12305096520985L178.48833333333334,53.11195557912591L179.07166666666666,53.105298347475525L179.655,53.1013040084853L180.23833333333334,53.09890740509117L180.82166666666666,53.09746944305469L181.405,53.096606665832816L181.98833333333332,53.09608899949969L182.57166666666666,53.0957783996998L183.155,53.09559203981988L183.73833333333332,53.095480223891926L184.3216666666667,53.095413134335146L184.905,53.09537288060107L185.48833333333334,53.09534872836065L186.0716666666667,53.09533423701639L186.655,53.095325542209835L187.23833333333334,53.09532032532589L187.82166666666666,53.09531719519552L188.405,53.09531531711732L188.98833333333334,53.09531419027041L189.57166666666666,53.095313514162235L190.155,53.09531310849734L190.73833333333332,53.095312865098414L191.32166666666666,53.09531271905904L191.905,53.09531263143542L192.48833333333332,53.09531257886126L193.0716666666667,53.095312547316745L193.655,53.09531252839005L194.23833333333334,53.09531251703401L194.8216666666667,53.09531251022041L195.405,53.09531250613223L195.98833333333334,53.095312503679345L196.57166666666666,53.0953125022076L197.155,53.09531250132454L197.73833333333334,53.09531250079472L198.32166666666666,53.09531250047684L198.905,53.0953125002861L199.48833333333332,53.095312500171666L200.07166666666666,53.09531250010299L200.655,53.09531250006179L201.23833333333332,53.09531250003707L201.8216666666667,53.09531250002223L202.405,53.09531250001333L202.98833333333334,53.095312500007985L203.5716666666667,53.09531250000478L204.155,53.095312500002855L204.73833333333334,53.09531250000172L205.32166666666666,53.09531250000103L205.905,53.095312500000595L206.48833333333334,53.09531250000034L207.07166666666666,53.095312500000205L207.655,53.09531250000013L208.23833333333332,53.09531250000007L208.82166666666666,53.09531250000003L209.405,53.095312500000006L209.98833333333332,53.095312500000006L210.5716666666667,53.095312500000006L211.155,53.095312500000006L211.73833333333334,53.095312500000006L212.3216666666667,53.095312500000006L212.905,53.095312500000006L213.48833333333334,53.095312500000006L214.07166666666666,53.095312500000006L214.655,53.095312500000006L215.23833333333334,53.095312500000006L215.82166666666666,53.095312500000006L216.405,53.095312500000006L216.98833333333332,53.095312500000006L217.57166666666666,53.095312500000006L218.155,53.095312500000006L218.73833333333332,53.095312500000006L219.04166666666669,53.095312500000006L219.3216666666667,38.936562499999994L219.905,30.441312499999988L220.48833333333334,25.344162499999978L221.0716666666667,22.285872500000007L221.655,20.45089849999998L222.23833333333334,19.349914100000014L222.82166666666666,18.689323460000008L223.405,18.292969076000013L223.98833333333334,18.05515644559999L224.57166666666666,17.91246886736L225.155,17.826856320416L225.73833333333332,17.775488792249607L226.32166666666666,17.74466827534977L226.905,17.726175965209855L227.48833333333332,17.715080579125917L228.0716666666667,17.708423347475552L228.655,17.70442900848533L229.23833333333334,17.70203240509119L229.8216666666667,17.70059444305472L230.405,17.699731665832804L230.98833333333334,17.699213999499676L231.57166666666666,17.698903399699834L232.155,17.698717039819908L232.73833333333334,17.698605223891953L233.32166666666666,17.698538134335156L233.905,17.698497880601074L234.48833333333332,17.698473728360657L235.07166666666666,17.698459237016376L235.655,17.69845054220984L236.23833333333332,17.698445325325917L236.8216666666667,17.698442195195568L237.405,17.698440317117324L237.98833333333334,17.698439190270395L238.5716666666667,17.698438514162245L239.155,17.698438108497328L239.73833333333334,17.698437865098406L240.32166666666666,17.698437719059047L240.905,17.698437631435446L241.48833333333334,17.698437578861245L242.07166666666666,17.698437547316754L242.655,17.698437528390063L243.23833333333332,17.698437517034016L243.82166666666666,17.698437510220415L244.405,17.69843750613226L244.98833333333332,17.69843750367933L245.5716666666667,17.698437502207625L246.155,17.69843750132457L246.73833333333334,17.698437500794746L247.3216666666667,17.698437500476864L247.905,17.69843750028609L248.48833333333334,17.69843750017165L249.07166666666666,17.698437500102997L249.655,17.69843750006181L250.23833333333334,17.698437500037095L250.82166666666666,17.69843750002226L251.405,17.698437500013338L251.98833333333332,17.698437500007994L252.57166666666666,17.698437500004772L253.155,17.698437500002886L253.73833333333332,17.698437500001724L254.3216666666667,17.698437500001038L254.905,17.698437500000626L255.48833333333334,17.69843750000037L256.07166666666666,17.698437500000214L256.65500000000003,17.698437500000132L257.23833333333334,17.698437500000054L257.82166666666666,17.698437500000054L258.405,17.698437500000036L258.98833333333334,17.698437499999997L259.57166666666666,17.698437499999997L260.155,17.698437499999997L260.73833333333334,17.698437499999997L261.32166666666666,17.698437499999997L261.905,17.698437499999997L262.48833333333334,17.698437499999997L263.07166666666666,17.698437499999997L263.65500000000003,17.698437499999997L264.23833333333334,17.698437499999997L264.82166666666666,17.698437499999997L265.40500000000003,17.698437499999997L265.98833333333334,17.698437499999997L266.57166666666666,17.698437499999997L267.155,17.698437499999997L267.73833333333334,17.698437499999997L268.2633333333333,17.698437499999997" style="fill: none;" fill="none"></path></g></g></g></g><g opacity="0.2"><g><g><g><path stroke="rgb(255, 112, 67)" stroke-width="2px" d="M23.905,159.28593750000002L24.488333333333333,159.28593750000002L25.07166666666667,159.28593750000002L25.655,159.28593750000002L26.238333333333333,159.28593750000002L26.821666666666665,159.28593750000002L27.405,159.28593750000002L27.988333333333333,159.28593750000002L28.57166666666667,159.28593750000002L29.154999999999998,159.28593750000002L29.738333333333333,159.28593750000002L30.321666666666665,159.28593750000002L30.905,159.28593750000002L31.48833333333333,159.28593750000002L32.071666666666665,159.28593750000002L32.655,159.28593750000002L33.23833333333333,159.28593750000002L33.821666666666665,159.28593750000002L34.405,159.28593750000002L34.98833333333334,159.28593750000002L35.571666666666665,159.28593750000002L36.154999999999994,159.28593750000002L36.73833333333334,159.28593750000002L37.321666666666665,159.28593750000002L37.905,159.28593750000002L38.48833333333333,159.28593750000002L39.07166666666667,159.28593750000002L39.655,159.28593750000002L40.23833333333333,159.28593750000002L40.82166666666667,159.28593750000002L41.405,159.28593750000002L41.98833333333333,159.28593750000002L42.571666666666665,159.28593750000002L43.155,159.28593750000002L43.73833333333334,159.28593750000002L44.321666666666665,159.28593750000002L44.904999999999994,159.28593750000002L45.48833333333334,159.28593750000002L46.071666666666665,159.28593750000002L46.655,159.28593750000002L47.23833333333333,159.28593750000002L47.82166666666667,159.28593750000002L48.405,159.28593750000002L48.98833333333333,159.28593750000002L49.57166666666667,159.28593750000002L50.155,159.28593750000002L50.73833333333333,159.28593750000002L51.321666666666665,159.28593750000002L51.905,159.28593750000002L52.48833333333334,159.28593750000002L53.071666666666665,159.28593750000002L53.654999999999994,159.28593750000002L54.23833333333334,159.28593750000002L54.821666666666665,159.28593750000002L55.405,159.28593750000002L55.98833333333333,159.28593750000002L56.57166666666667,159.28593750000002L57.155,159.28593750000002L57.73833333333333,159.28593750000002L58.32166666666667,159.28593750000002L58.905,159.28593750000002L59.48833333333333,159.28593750000002L60.071666666666665,159.28593750000002L60.655,159.28593750000002L61.23833333333334,159.28593750000002L61.821666666666665,159.28593750000002L62.404999999999994,159.28593750000002L62.98833333333334,159.28593750000002L63.571666666666665,159.28593750000002L64.155,159.28593750000002L64.73833333333333,159.28593750000002L65.32166666666667,159.28593750000002L65.905,159.28593750000002L66.48833333333333,159.28593750000002L67.07166666666667,159.28593750000002L67.655,159.28593750000002L68.23833333333333,159.28593750000002L68.82166666666666,159.28593750000002L69.405,159.28593750000002L69.98833333333333,159.28593750000002L70.57166666666667,159.28593750000002L71.155,159.28593750000002L71.37666666666667,159.28593750000002L71.73833333333333,123.8890625L72.32166666666666,123.8890625L72.905,123.8890625L73.48833333333334,123.8890625L74.07166666666667,123.8890625L74.655,123.8890625L75.23833333333333,123.8890625L75.82166666666666,123.8890625L76.405,123.8890625L76.98833333333334,123.8890625L77.57166666666667,123.8890625L78.155,123.8890625L78.73833333333333,123.8890625L79.32166666666667,123.8890625L79.905,123.8890625L80.48833333333333,123.8890625L81.07166666666666,123.8890625L81.655,123.8890625L82.23833333333334,123.8890625L82.82166666666667,123.8890625L83.405,123.8890625L83.98833333333333,123.8890625L84.57166666666666,123.8890625L85.155,123.8890625L85.73833333333334,123.8890625L86.32166666666667,123.8890625L86.905,123.8890625L87.48833333333333,123.8890625L88.07166666666667,123.8890625L88.655,123.8890625L89.23833333333333,123.8890625L89.82166666666666,123.8890625L90.405,123.8890625L90.98833333333334,123.8890625L91.57166666666667,123.8890625L92.155,123.8890625L92.73833333333333,123.8890625L93.32166666666666,123.8890625L93.905,123.8890625L94.48833333333334,123.8890625L95.07166666666667,123.8890625L95.655,123.8890625L96.23833333333333,123.8890625L96.82166666666667,123.8890625L97.405,123.8890625L97.98833333333333,123.8890625L98.57166666666666,123.8890625L99.155,123.8890625L99.73833333333334,123.8890625L100.32166666666667,123.8890625L100.905,123.8890625L101.48833333333333,123.8890625L102.07166666666666,123.8890625L102.655,123.8890625L103.23833333333334,123.8890625L103.82166666666667,123.8890625L104.405,123.8890625L104.98833333333333,123.8890625L105.57166666666667,123.8890625L106.155,123.8890625L106.73833333333333,123.8890625L107.32166666666666,123.8890625L107.905,123.8890625L108.48833333333334,123.8890625L109.07166666666667,123.8890625L109.655,123.8890625L110.23833333333333,123.8890625L110.82166666666666,123.8890625L111.405,123.8890625L111.98833333333334,123.8890625L112.57166666666667,123.8890625L113.155,123.8890625L113.73833333333333,123.8890625L114.32166666666667,123.8890625L114.905,123.8890625L115.48833333333333,123.8890625L116.07166666666666,123.8890625L116.655,123.8890625L117.23833333333334,123.8890625L117.82166666666667,123.8890625L118.405,123.8890625L118.98833333333333,123.8890625L119.57166666666666,123.8890625L120.155,123.8890625L120.59833333333334,123.8890625L120.73833333333334,88.4921875L121.32166666666667,88.4921875L121.905,88.4921875L122.48833333333333,88.4921875L123.07166666666667,88.4921875L123.655,88.4921875L124.23833333333333,88.4921875L124.82166666666666,88.4921875L125.405,88.4921875L125.98833333333334,88.4921875L126.57166666666667,88.4921875L127.155,88.4921875L127.73833333333333,88.4921875L128.32166666666666,88.4921875L128.905,88.4921875L129.48833333333334,88.4921875L130.07166666666666,88.4921875L130.655,88.4921875L131.23833333333334,88.4921875L131.82166666666666,88.4921875L132.405,88.4921875L132.98833333333332,88.4921875L133.57166666666666,88.4921875L134.155,88.4921875L134.73833333333334,88.4921875L135.32166666666666,88.4921875L135.905,88.4921875L136.48833333333334,88.4921875L137.07166666666666,88.4921875L137.655,88.4921875L138.23833333333334,88.4921875L138.82166666666666,88.4921875L139.405,88.4921875L139.98833333333334,88.4921875L140.5716666666667,88.4921875L141.155,88.4921875L141.73833333333334,88.4921875L142.3216666666667,88.4921875L142.905,88.4921875L143.48833333333334,88.4921875L144.07166666666666,88.4921875L144.655,88.4921875L145.23833333333334,88.4921875L145.82166666666666,88.4921875L146.405,88.4921875L146.98833333333332,88.4921875L147.57166666666666,88.4921875L148.155,88.4921875L148.73833333333332,88.4921875L149.3216666666667,88.4921875L149.905,88.4921875L150.48833333333334,88.4921875L151.0716666666667,88.4921875L151.655,88.4921875L152.23833333333334,88.4921875L152.82166666666666,88.4921875L153.405,88.4921875L153.98833333333334,88.4921875L154.57166666666666,88.4921875L155.155,88.4921875L155.73833333333332,88.4921875L156.32166666666666,88.4921875L156.905,88.4921875L157.48833333333332,88.4921875L158.0716666666667,88.4921875L158.655,88.4921875L159.23833333333334,88.4921875L159.8216666666667,88.4921875L160.405,88.4921875L160.98833333333334,88.4921875L161.57166666666666,88.4921875L162.155,88.4921875L162.73833333333334,88.4921875L163.32166666666666,88.4921875L163.905,88.4921875L164.48833333333332,88.4921875L165.07166666666666,88.4921875L165.655,88.4921875L166.23833333333332,88.4921875L166.8216666666667,88.4921875L167.405,88.4921875L167.98833333333334,88.4921875L168.5716666666667,88.4921875L169.155,88.4921875L169.73833333333334,88.4921875L169.82000000000002,88.4921875L170.32166666666666,53.095312500000006L170.905,53.095312500000006L171.48833333333334,53.095312500000006L172.07166666666666,53.095312500000006L172.655,53.095312500000006L173.23833333333332,53.095312500000006L173.82166666666666,53.095312500000006L174.405,53.095312500000006L174.98833333333332,53.095312500000006L175.5716666666667,53.095312500000006L176.155,53.095312500000006L176.73833333333334,53.095312500000006L177.3216666666667,53.095312500000006L177.905,53.095312500000006L178.48833333333334,53.095312500000006L179.07166666666666,53.095312500000006L179.655,53.095312500000006L180.23833333333334,53.095312500000006L180.82166666666666,53.095312500000006L181.405,53.095312500000006L181.98833333333332,53.095312500000006L182.57166666666666,53.095312500000006L183.155,53.095312500000006L183.73833333333332,53.095312500000006L184.3216666666667,53.095312500000006L184.905,53.095312500000006L185.48833333333334,53.095312500000006L186.0716666666667,53.095312500000006L186.655,53.095312500000006L187.23833333333334,53.095312500000006L187.82166666666666,53.095312500000006L188.405,53.095312500000006L188.98833333333334,53.095312500000006L189.57166666666666,53.095312500000006L190.155,53.095312500000006L190.73833333333332,53.095312500000006L191.32166666666666,53.095312500000006L191.905,53.095312500000006L192.48833333333332,53.095312500000006L193.0716666666667,53.095312500000006L193.655,53.095312500000006L194.23833333333334,53.095312500000006L194.8216666666667,53.095312500000006L195.405,53.095312500000006L195.98833333333334,53.095312500000006L196.57166666666666,53.095312500000006L197.155,53.095312500000006L197.73833333333334,53.095312500000006L198.32166666666666,53.095312500000006L198.905,53.095312500000006L199.48833333333332,53.095312500000006L200.07166666666666,53.095312500000006L200.655,53.095312500000006L201.23833333333332,53.095312500000006L201.8216666666667,53.095312500000006L202.405,53.095312500000006L202.98833333333334,53.095312500000006L203.5716666666667,53.095312500000006L204.155,53.095312500000006L204.73833333333334,53.095312500000006L205.32166666666666,53.095312500000006L205.905,53.095312500000006L206.48833333333334,53.095312500000006L207.07166666666666,53.095312500000006L207.655,53.095312500000006L208.23833333333332,53.095312500000006L208.82166666666666,53.095312500000006L209.405,53.095312500000006L209.98833333333332,53.095312500000006L210.5716666666667,53.095312500000006L211.155,53.095312500000006L211.73833333333334,53.095312500000006L212.3216666666667,53.095312500000006L212.905,53.095312500000006L213.48833333333334,53.095312500000006L214.07166666666666,53.095312500000006L214.655,53.095312500000006L215.23833333333334,53.095312500000006L215.82166666666666,53.095312500000006L216.405,53.095312500000006L216.98833333333332,53.095312500000006L217.57166666666666,53.095312500000006L218.155,53.095312500000006L218.73833333333332,53.095312500000006L219.04166666666669,53.095312500000006L219.3216666666667,17.698437499999997L219.905,17.698437499999997L220.48833333333334,17.698437499999997L221.0716666666667,17.698437499999997L221.655,17.698437499999997L222.23833333333334,17.698437499999997L222.82166666666666,17.698437499999997L223.405,17.698437499999997L223.98833333333334,17.698437499999997L224.57166666666666,17.698437499999997L225.155,17.698437499999997L225.73833333333332,17.698437499999997L226.32166666666666,17.698437499999997L226.905,17.698437499999997L227.48833333333332,17.698437499999997L228.0716666666667,17.698437499999997L228.655,17.698437499999997L229.23833333333334,17.698437499999997L229.8216666666667,17.698437499999997L230.405,17.698437499999997L230.98833333333334,17.698437499999997L231.57166666666666,17.698437499999997L232.155,17.698437499999997L232.73833333333334,17.698437499999997L233.32166666666666,17.698437499999997L233.905,17.698437499999997L234.48833333333332,17.698437499999997L235.07166666666666,17.698437499999997L235.655,17.698437499999997L236.23833333333332,17.698437499999997L236.8216666666667,17.698437499999997L237.405,17.698437499999997L237.98833333333334,17.698437499999997L238.5716666666667,17.698437499999997L239.155,17.698437499999997L239.73833333333334,17.698437499999997L240.32166666666666,17.698437499999997L240.905,17.698437499999997L241.48833333333334,17.698437499999997L242.07166666666666,17.698437499999997L242.655,17.698437499999997L243.23833333333332,17.698437499999997L243.82166666666666,17.698437499999997L244.405,17.698437499999997L244.98833333333332,17.698437499999997L245.5716666666667,17.698437499999997L246.155,17.698437499999997L246.73833333333334,17.698437499999997L247.3216666666667,17.698437499999997L247.905,17.698437499999997L248.48833333333334,17.698437499999997L249.07166666666666,17.698437499999997L249.655,17.698437499999997L250.23833333333334,17.698437499999997L250.82166666666666,17.698437499999997L251.405,17.698437499999997L251.98833333333332,17.698437499999997L252.57166666666666,17.698437499999997L253.155,17.698437499999997L253.73833333333332,17.698437499999997L254.3216666666667,17.698437499999997L254.905,17.698437499999997L255.48833333333334,17.698437499999997L256.07166666666666,17.698437499999997L256.65500000000003,17.698437499999997L257.23833333333334,17.698437499999997L257.82166666666666,17.698437499999997L258.405,17.698437499999997L258.98833333333334,17.698437499999997L259.57166666666666,17.698437499999997L260.155,17.698437499999997L260.73833333333334,17.698437499999997L261.32166666666666,17.698437499999997L261.905,17.698437499999997L262.48833333333334,17.698437499999997L263.07166666666666,17.698437499999997L263.65500000000003,17.698437499999997L264.23833333333334,17.698437499999997L264.82166666666666,17.698437499999997L265.40500000000003,17.698437499999997L265.98833333333334,17.698437499999997L266.57166666666666,17.698437499999997L267.155,17.698437499999997L267.73833333333334,17.698437499999997L268.2633333333333,17.698437499999997" style="fill: none;" fill="none"></path></g></g></g></g></g></g><g transform="translate(50, 176)" clip-path="url(#clip_1)"><clipPath id="clip_1"><rect width="280" height="23"></rect></clipPath><g><g><line x1="0" y1="0" x2="0" y2="5" style="visibility: inherit;" fill="rgb(0, 0, 0)" stroke="rgb(204, 204, 204)" stroke-width="1px"></line><line x1="23.333333333333332" y1="0" x2="23.333333333333332" y2="5" style="visibility: inherit;" fill="rgb(0, 0, 0)" stroke="rgb(204, 204, 204)" stroke-width="1px"></line><line x1="46.666666666666664" y1="0" x2="46.666666666666664" y2="5" style="visibility: inherit;" fill="rgb(0, 0, 0)" stroke="rgb(204, 204, 204)" stroke-width="1px"></line><line x1="70" y1="0" x2="70" y2="5" style="visibility: inherit;" fill="rgb(0, 0, 0)" stroke="rgb(204, 204, 204)" stroke-width="1px"></line><line x1="93.33333333333333" y1="0" x2="93.33333333333333" y2="5" style="visibility: inherit;" fill="rgb(0, 0, 0)" stroke="rgb(204, 204, 204)" stroke-width="1px"></line><line x1="116.66666666666667" y1="0" x2="116.66666666666667" y2="5" style="visibility: inherit;" fill="rgb(0, 0, 0)" stroke="rgb(204, 204, 204)" stroke-width="1px"></line><line x1="140" y1="0" x2="140" y2="5" style="visibility: inherit;" fill="rgb(0, 0, 0)" stroke="rgb(204, 204, 204)" stroke-width="1px"></line><line x1="163.33333333333334" y1="0" x2="163.33333333333334" y2="5" style="visibility: inherit;" fill="rgb(0, 0, 0)" stroke="rgb(204, 204, 204)" stroke-width="1px"></line><line x1="186.66666666666666" y1="0" x2="186.66666666666666" y2="5" style="visibility: inherit;" fill="rgb(0, 0, 0)" stroke="rgb(204, 204, 204)" stroke-width="1px"></line><line x1="210" y1="0" x2="210" y2="5" style="visibility: inherit;" fill="rgb(0, 0, 0)" stroke="rgb(204, 204, 204)" stroke-width="1px"></line><line x1="233.33333333333334" y1="0" x2="233.33333333333334" y2="5" style="visibility: inherit;" fill="rgb(0, 0, 0)" stroke="rgb(204, 204, 204)" stroke-width="1px"></line><line x1="256.66666666666663" y1="0" x2="256.66666666666663" y2="5" style="visibility: inherit;" fill="rgb(0, 0, 0)" stroke="rgb(204, 204, 204)" stroke-width="1px"></line><line x1="280" y1="0" x2="280" y2="5" style="visibility: inherit;" fill="rgb(0, 0, 0)" stroke="rgb(204, 204, 204)" stroke-width="1px"></line></g><g transform="translate(0, 8)"><text x="0" y="0" dx="0em" dy="0.95em" style="text-anchor: middle; visibility: hidden; font-family: Roboto, sans-serif; font-size: 12px; font-weight: 200;" fill="rgb(33, 33, 33)" stroke="none" stroke-width="1px">-2k</text><text x="23.333333333333332" y="0" dx="0em" dy="0.95em" style="text-anchor: middle; visibility: inherit; font-family: Roboto, sans-serif; font-size: 12px; font-weight: 200;" fill="rgb(33, 33, 33)" stroke="none" stroke-width="1px">0</text><text x="46.666666666666664" y="0" dx="0em" dy="0.95em" style="text-anchor: middle; visibility: hidden; font-family: Roboto, sans-serif; font-size: 12px; font-weight: 200;" fill="rgb(33, 33, 33)" stroke="none" stroke-width="1px">2k</text><text x="70" y="0" dx="0em" dy="0.95em" style="text-anchor: middle; visibility: inherit; font-family: Roboto, sans-serif; font-size: 12px; font-weight: 200;" fill="rgb(33, 33, 33)" stroke="none" stroke-width="1px">4k</text><text x="93.33333333333333" y="0" dx="0em" dy="0.95em" style="text-anchor: middle; visibility: hidden; font-family: Roboto, sans-serif; font-size: 12px; font-weight: 200;" fill="rgb(33, 33, 33)" stroke="none" stroke-width="1px">6k</text><text x="116.66666666666667" y="0" dx="0em" dy="0.95em" style="text-anchor: middle; visibility: inherit; font-family: Roboto, sans-serif; font-size: 12px; font-weight: 200;" fill="rgb(33, 33, 33)" stroke="none" stroke-width="1px">8k</text><text x="140" y="0" dx="0em" dy="0.95em" style="text-anchor: middle; visibility: hidden; font-family: Roboto, sans-serif; font-size: 12px; font-weight: 200;" fill="rgb(33, 33, 33)" stroke="none" stroke-width="1px">10k</text><text x="163.33333333333334" y="0" dx="0em" dy="0.95em" style="text-anchor: middle; visibility: inherit; font-family: Roboto, sans-serif; font-size: 12px; font-weight: 200;" fill="rgb(33, 33, 33)" stroke="none" stroke-width="1px">12k</text><text x="186.66666666666666" y="0" dx="0em" dy="0.95em" style="text-anchor: middle; visibility: hidden; font-family: Roboto, sans-serif; font-size: 12px; font-weight: 200;" fill="rgb(33, 33, 33)" stroke="none" stroke-width="1px">14k</text><text x="210" y="0" dx="0em" dy="0.95em" style="text-anchor: middle; visibility: inherit; font-family: Roboto, sans-serif; font-size: 12px; font-weight: 200;" fill="rgb(33, 33, 33)" stroke="none" stroke-width="1px">16k</text><text x="233.33333333333334" y="0" dx="0em" dy="0.95em" style="text-anchor: middle; visibility: hidden; font-family: Roboto, sans-serif; font-size: 12px; font-weight: 200;" fill="rgb(33, 33, 33)" stroke="none" stroke-width="1px">18k</text><text x="256.66666666666663" y="0" dx="0em" dy="0.95em" style="text-anchor: middle; visibility: inherit; font-family: Roboto, sans-serif; font-size: 12px; font-weight: 200;" fill="rgb(33, 33, 33)" stroke="none" stroke-width="1px">20k</text><text x="280" y="0" dx="0em" dy="0.95em" style="text-anchor: middle; visibility: hidden; font-family: Roboto, sans-serif; font-size: 12px; font-weight: 200;" fill="rgb(33, 33, 33)" stroke="none" stroke-width="1px">22k</text></g><line x1="0" y1="0" x2="280" y2="0" fill="rgb(0, 0, 0)" stroke="rgb(204, 204, 204)" stroke-width="1px"></line></g></g></g></g></svg>