<svg viewBox="0 0 330 200" xmlns="http://www.w3.org/2000/svg"><g><g><g><g><g><line x1="51.5625" y1="176.921875" x2="46.5625" y2="176.921875" style="visibility: inherit;" fill="rgb(0, 0, 0)" stroke="rgb(204, 204, 204)" stroke-width="1px"></line><line x1="51.5625" y1="163.3125" x2="46.5625" y2="163.3125" style="visibility: inherit;" fill="rgb(0, 0, 0)" stroke="rgb(204, 204, 204)" stroke-width="1px"></line><line x1="51.5625" y1="149.703125" x2="46.5625" y2="149.703125" style="visibility: inherit;" fill="rgb(0, 0, 0)" stroke="rgb(204, 204, 204)" stroke-width="1px"></line><line x1="51.5625" y1="136.09375" x2="46.5625" y2="136.09375" style="visibility: inherit;" fill="rgb(0, 0, 0)" stroke="rgb(204, 204, 204)" stroke-width="1px"></line><line x1="51.5625" y1="122.484375" x2="46.5625" y2="122.484375" style="visibility: inherit;" fill="rgb(0, 0, 0)" stroke="rgb(204, 204, 204)" stroke-width="1px"></line><line x1="51.5625" y1="108.875" x2="46.5625" y2="108.875" style="visibility: inherit;" fill="rgb(0, 0, 0)" stroke="rgb(204, 204, 204)" stroke-width="1px"></line><line x1="51.5625" y1="95.265625" x2="46.5625" y2="95.265625" style="visibility: inherit;" fill="rgb(0, 0, 0)" stroke="rgb(204, 204, 204)" stroke-width="1px"></line><line x1="51.5625" y1="81.65625" x2="46.5625" y2="81.65625" style="visibility: inherit;" fill="rgb(0, 0, 0)" stroke="rgb(204, 204, 204)" stroke-width="1px"></line><line x1="51.5625" y1="68.046875" x2="46.5625" y2="68.046875" style="visibility: inherit;" fill="rgb(0, 0, 0)" stroke="rgb(204, 204, 204)" stroke-width="1px"></line><line x1="51.5625" y1="54.4375" x2="46.5625" y2="54.4375" style="visibility: inherit;" fill="rgb(0, 0, 0)" stroke="rgb(204, 204, 204)" stroke-width="1px"></line><line x1="51.5625" y1="40.82812499999999" x2="46.5625" y2="40.82812499999999" style="visibility: inherit;" fill="rgb(0, 0, 0)" stroke="rgb(204, 204, 204)" stroke-width="1px"></line><line x1="51.5625" y1="27.21875" x2="46.5625" y2="27.21875" style="visibility: inherit;" fill="rgb(0, 0, 0)" stroke="rgb(204, 204, 204)" stroke-width="1px"></line><line x1="51.5625" y1="13.609374999999991" x2="46.5625" y2="13.609374999999991" style="visibility: inherit;" fill="rgb(0, 0, 0)" stroke="rgb(204, 204, 204)" stroke-width="1px"></line><line x1="51.5625" y1="0" x2="46.5625" y2="0" style="visibility: inherit;" fill="rgb(0, 0, 0)" stroke="rgb(204, 204, 204)" stroke-width="1px"></line></g><g transform="translate(41.5625, 0)"><text x="0" y="176.921875" dx="0em" dy="0.3em" style="text-anchor: end; visibility: hidden; font-family: Roboto, sans-serif; font-size: 12px; font-weight: 200;" fill="rgb(33, 33, 33)" stroke="none" stroke-width="1px">1.88</text><text x="0" y="163.3125" dx="0em" dy="0.3em" style="text-anchor: end; visibility: inherit; font-family: Roboto, sans-serif; font-size: 12px; font-weight: 200;" fill="rgb(33, 33, 33)" stroke="none" stroke-width="1px">1.9</text><text x="0" y="149.703125" dx="0em" dy="0.3em" style="text-anchor: end; visibility: hidden; font-family: Roboto, sans-serif; font-size: 12px; font-weight: 200;" fill="rgb(33, 33, 33)" stroke="none" stroke-width="1px">1.92</text><text x="0" y="136.09375" dx="0em" dy="0.3em" style="text-anchor: end; visibility: inherit; font-family: Roboto, sans-serif; font-size: 12px; font-weight: 200;" fill="rgb(33, 33, 33)" stroke="none" stroke-width="1px">1.94</text><text x="0" y="122.484375" dx="0em" dy="0.3em" style="text-anchor: end; visibility: hidden; font-family: Roboto, sans-serif; font-size: 12px; font-weight: 200;" fill="rgb(33, 33, 33)" stroke="none" stroke-width="1px">1.96</text><text x="0" y="108.875" dx="0em" dy="0.3em" style="text-anchor: end; visibility: inherit; font-family: Roboto, sans-serif; font-size: 12px; font-weight: 200;" fill="rgb(33, 33, 33)" stroke="none" stroke-width="1px">1.98</text><text x="0" y="95.265625" dx="0em" dy="0.3em" style="text-anchor: end; visibility: hidden; font-family: Roboto, sans-serif; font-size: 12px; font-weight: 200;" fill="rgb(33, 33, 33)" stroke="none" stroke-width="1px">2</text><text x="0" y="81.65625" dx="0em" dy="0.3em" style="text-anchor: end; visibility: inherit; font-family: Roboto, sans-serif; font-size: 12px; font-weight: 200;" fill="rgb(33, 33, 33)" stroke="none" stroke-width="1px">2.02</text><text x="0" y="68.046875" dx="0em" dy="0.3em" style="text-anchor: end; visibility: hidden; font-family: Roboto, sans-serif; font-size: 12px; font-weight: 200;" fill="rgb(33, 33, 33)" stroke="none" stroke-width="1px">2.04</text><text x="0" y="54.4375" dx="0em" dy="0.3em" style="text-anchor: end; visibility: inherit; font-family: Roboto, sans-serif; font-size: 12px; font-weight: 200;" fill="rgb(33, 33, 33)" stroke="none" stroke-width="1px">2.06</text><text x="0" y="40.82812499999999" dx="0em" dy="0.3em" style="text-anchor: end; visibility: hidden; font-family: Roboto, sans-serif; font-size: 12px; font-weight: 200;" fill="rgb(33, 33, 33)" stroke="none" stroke-width="1px">2.08</text><text x="0" y="27.21875" dx="0em" dy="0.3em" style="text-anchor: end; visibility: inherit; font-family: Roboto, sans-serif; font-size: 12px; font-weight: 200;" fill="rgb(33, 33, 33)" stroke="none" stroke-width="1px">2.1</text><text x="0" y="13.609374999999991" dx="0em" dy="0.3em" style="text-anchor: end; visibility: hidden; font-family: Roboto, sans-serif; font-size: 12px; font-weight: 200;" fill="rgb(33, 33, 33)" stroke="none" stroke-width="1px">2.12</text><text x="0" y="0" dx="0em" dy="0.3em" style="text-anchor: end; visibility: hidden; font-family: Roboto, sans-serif; font-size: 12px; font-weight: 200;" fill="rgb(33, 33, 33)" stroke="none" stroke-width="1px">2.14</text></g><line x1="51.5625" y1="0" x2="51.5625" y2="176.921875" fill="rgb(0, 0, 0)" stroke="rgb(204, 204, 204)" stroke-width="1px"></line></g></g><g transform="translate(51, 0)" clip-path="url(#clip_0)"><clipPath id="clip_0"><rect width="278" height="176"></rect></clipPath><g><g><g><line x1="0" y1="0" x2="0" y2="176.921875" fill="rgb(0, 0, 0)" stroke="rgb(66, 66, 66)" stroke-width="1px" opacity="0.25"></line><line x1="27.84375" y1="0" x2="27.84375" y2="176.921875" fill="rgb(0, 0, 0)" stroke="rgb(66, 66, 66)" stroke-width="1px" opacity="0.25"></line><line x1="55.6875" y1="0" x2="55.6875" y2="176.921875" fill="rgb(0, 0, 0)" stroke="rgb(66, 66, 66)" stroke-width="1px" opacity="0.25"></line><line x1="83.53125" y1="0" x2="83.53125" y2="176.921875" fill="rgb(0, 0, 0)" stroke="rgb(66, 66, 66)" stroke-width="1px" opacity="0.25"></line><line x1="111.375" y1="0" x2="111.375" y2="176.921875" fill="rgb(0, 0, 0)" stroke="rgb(66, 66, 66)" stroke-width="1px" opacity="0.25"></line><line x1="139.21875" y1="0" x2="139.21875" y2="176.921875" fill="rgb(0, 0, 0)" stroke="rgb(66, 66, 66)" stroke-width="1px" opacity="0.25"></line><line x1="167.0625" y1="0" x2="167.0625" y2="176.921875" fill="rgb(0, 0, 0)" stroke="rgb(66, 66, 66)" stroke-width="1px" opacity="0.25"></line><line x1="194.90625" y1="0" x2="194.90625" y2="176.921875" fill="rgb(0, 0, 0)" stroke="rgb(66, 66, 66)" stroke-width="1px" opacity="0.25"></line><line x1="222.75" y1="0" x2="222.75" y2="176.921875" fill="rgb(0, 0, 0)" stroke="rgb(66, 66, 66)" stroke-width="1px" opacity="0.25"></line><line x1="250.59375" y1="0" x2="250.59375" y2="176.921875" fill="rgb(0, 0, 0)" stroke="rgb(66, 66, 66)" stroke-width="1px" opacity="0.25"></line><line x1="278.4375" y1="0" x2="278.4375" y2="176.921875" fill="rgb(0, 0, 0)" stroke="rgb(66, 66, 66)" stroke-width="1px" opacity="0.25"></line></g><g><line x1="0" y1="176.921875" x2="278.4375" y2="176.921875" fill="rgb(0, 0, 0)" stroke="rgb(66, 66, 66)" stroke-width="1px" opacity="0.25"></line><line x1="0" y1="163.3125" x2="278.4375" y2="163.3125" fill="rgb(0, 0, 0)" stroke="rgb(66, 66, 66)" stroke-width="1px" opacity="0.25"></line><line x1="0" y1="149.703125" x2="278.4375" y2="149.703125" fill="rgb(0, 0, 0)" stroke="rgb(66, 66, 66)" stroke-width="1px" opacity="0.25"></line><line x1="0" y1="136.09375" x2="278.4375" y2="136.09375" fill="rgb(0, 0, 0)" stroke="rgb(66, 66, 66)" stroke-width="1px" opacity="0.25"></line><line x1="0" y1="122.484375" x2="278.4375" y2="122.484375" fill="rgb(0, 0, 0)" stroke="rgb(66, 66, 66)" stroke-width="1px" opacity="0.25"></line><line x1="0" y1="108.875" x2="278.4375" y2="108.875" fill="rgb(0, 0, 0)" stroke="rgb(66, 66, 66)" stroke-width="1px" opacity="0.25"></line><line x1="0" y1="95.265625" x2="278.4375" y2="95.265625" fill="rgb(0, 0, 0)" stroke="rgb(66, 66, 66)" stroke-width="1px" opacity="0.25"></line><line x1="0" y1="81.65625" x2="278.4375" y2="81.65625" fill="rgb(0, 0, 0)" stroke="rgb(66, 66, 66)" stroke-width="1px" opacity="0.25"></line><line x1="0" y1="68.046875" x2="278.4375" y2="68.046875" fill="rgb(0, 0, 0)" stroke="rgb(66, 66, 66)" stroke-width="1px" opacity="0.25"></line><line x1="0" y1="54.4375" x2="278.4375" y2="54.4375" fill="rgb(0, 0, 0)" stroke="rgb(66, 66, 66)" stroke-width="1px" opacity="0.25"></line><line x1="0" y1="40.82812499999999" x2="278.4375" y2="40.82812499999999" fill="rgb(0, 0, 0)" stroke="rgb(66, 66, 66)" stroke-width="1px" opacity="0.25"></line><line x1="0" y1="27.21875" x2="278.4375" y2="27.21875" fill="rgb(0, 0, 0)" stroke="rgb(66, 66, 66)" stroke-width="1px" opacity="0.25"></line><line x1="0" y1="13.609374999999991" x2="278.4375" y2="13.609374999999991" fill="rgb(0, 0, 0)" stroke="rgb(66, 66, 66)" stroke-width="1px" opacity="0.25"></line><line x1="0" y1="0" x2="278.4375" y2="0" fill="rgb(0, 0, 0)" stroke="rgb(66, 66, 66)" stroke-width="1px" opacity="0.25"></line></g></g></g><g><g><line x1="0" y1="1456.2031249999986" x2="278.4375" y2="1456.2031249999986" fill="rgb(0, 0, 0)" stroke="rgb(153, 153, 153)" stroke-width="1.5px"></line></g></g><g><g><line x1="27.84375" y1="0" x2="27.84375" y2="176.921875" fill="rgb(0, 0, 0)" stroke="rgb(153, 153, 153)" stroke-width="1.5px"></line></g></g><g><g><g><g><g><path stroke="rgb(255, 112, 67)" stroke-width="2px" d="M32.53820625,-5.440567408688261L34.88821875,4.420870311558325L37.23823125,8.772101057227777L39.588243750000004,10.991500500716318L41.93825625,12.207487436217596L44.28826875,12.899925015341681L46.638281250000006,13.302373971925437L48.988293750000004,13.539669827979745L51.338306249999995,13.680703405898209L53.68831875,40.04761378806254L56.03833125,67.06571946385392L58.38834375,84.62555454379982L60.73835625,95.63388944286949L63.08836875,102.51157075190862L65.43838125,106.81926099418732L67.78839375,109.53449852244665L70.13840625,111.28844382961805L72.48841875000001,116.00444513099906L74.83843125,124.43342867080747L77.18844375,130.22274556244486L79.53845625000001,134.2071759884753L81.88846874999999,136.98794983763221L84.23848124999999,138.94469552779123L86.58849375,140.376012210577L88.93850624999999,141.45946495547776L91.28851875,142.31255824895052L93.63853125,143.02636565162803L95.98854374999999,143.64823034754826L98.33855625,144.18806317224397L100.68856875,144.66443257257595L103.03858125000001,145.13539835818867L105.38859375,145.5492595006458L107.73860625,145.94154475229973L110.08861875000001,146.35222854484587L112.43863125,146.73345725941158L114.78864375,147.07459185905276L117.13865625000001,147.44186593065155L119.48866875,147.85415602549068L121.83868125000001,148.2448821584092L124.18869375000001,148.57351228738597L126.53870624999999,148.9215053151421L128.88871874999998,149.23585212867832L131.23873125,149.50285284161058L133.58874375,149.82139598843477L135.93875624999998,150.110058395684L138.28876875,150.39529629268552L140.63878125,150.67322302442395L142.98879374999999,151.00919162084085L145.33880625,151.27540775745967L147.68881875,151.44626685595517L150.03883125000002,151.6546902320749L152.38884375,151.86031085026093L154.73885625,152.02962856752805L157.08886875000002,152.1940695763418L159.43888125,152.33864708070678L161.78889375,152.43973528042275L164.13890625000002,152.6346225914052L166.48891875,152.84529516557993L168.83893125,153.09438187009192L171.18894375000002,153.27102471218157L173.53895625,153.40147566542436L175.88896875,153.56333042678463L178.23898125000002,153.71725846825373L180.58899375000001,153.84530729948474L182.93900625,153.99478605478387L185.28901875000003,154.131521861788L187.63903125000002,154.23030614169613L189.98904374999998,154.33217998631122L192.33905625,154.40092940352747L194.68906875,154.48182962818376L197.03908124999998,154.57693160762452L199.38909375,154.70171026551745L201.73910625,154.83190007009534L204.08911874999998,154.9663424283172L206.43913125,155.1332851567809L208.78914375,155.24032961690085L211.13915624999998,155.3586783535101L213.48916875,155.45337410878048L215.83918125,155.55188631481462L218.18919375,155.60382278988675L220.53920625,155.66908676463302L222.88921875,155.78452870123348L225.23923125,155.82692751659607L227.58924375,155.87439850791483L229.93925625,155.94425138279306L232.28926875,155.99456695285147L234.63928125,156.07352455447142L236.98929375,156.13355355405827L239.33930625,156.1893637936951L241.68931875,156.23066973159567L244.03933125,156.31148974430465L246.38934375,156.37526442010343L248.73935625000001,156.42332830368943L251.08936875,156.4513878991573L253.43938125,156.53149584951203L255.78939375000002,156.5635316641461L258.13940625000004,156.57736690469574L260.48941875,156.63820019291626L262.83943125,156.71149537966718" style="fill: none;" fill="none"></path></g></g></g></g><g opacity="0.2"><g><g><g><path stroke="rgb(255, 112, 67)" stroke-width="2px" d="M30.18819375,-37.62999144196498L32.53820625,13.87308701127774L34.88821875,13.887850522995059L37.23823125,13.889148414135054L39.588243750000004,13.889148414135054L41.93825625,13.88963512331255L44.28826875,13.890121832490044L46.638281250000006,13.889148414135054L48.988293750000004,13.88963512331255L51.338306249999995,13.890121832490044L53.68831875,79.358833424747L56.03833125,107.44584663957357L58.38834375,110.90797125548124L60.73835625,112.1248253174126L63.08836875,112.82000825926661L65.43838125,113.27775824069975L67.78839375,113.60620581731197L70.13840625,113.91891646385191L72.48841875000001,123.07772864773868L74.83843125,137.0761335380375L77.18844375,138.90640340000388L79.53845625000001,140.18369051814074L81.88846874999999,141.1590557098388L84.23848124999999,141.87979088351128L86.58849375,142.52297706156966L88.93850624999999,143.08463945239777L91.28851875,143.59219600632784L93.63853125,144.09707565978164L95.98854374999999,144.58102681860322L98.33855625,144.99781211093065L100.68856875,145.3789865151047L103.03858125000001,145.84184694290155L105.38859375,146.17005116492504L107.73860625,146.5299726016819L110.08861875000001,146.96825421601528L112.43863125,147.30530032142994L114.78864375,147.58629375323648L117.13865625000001,147.99277703464028L119.48866875,148.47259116545317L121.83868125000001,148.83097135648126L124.18869375000001,149.06645748019216L126.53870624999999,149.44349485635752L128.88871874999998,149.70737234875554L131.23873125,149.90335391089314L133.58874375,150.29921070858833L135.93875624999998,150.54305200651282L138.28876875,150.82315313816065L140.63878125,151.09011312201616L142.98879374999999,151.5131445154547L145.33880625,151.67473196238274L147.68881875,151.70255550369615L150.03883125000002,151.9673252962529L152.38884375,152.1687417775392L154.73885625,152.2836051434278L157.08886875000002,152.44073108956212L159.43888125,152.55551333725447L161.78889375,152.59136757999653L164.13890625000002,152.92695355787868L166.48891875,153.16130402684206L168.83893125,153.46801192685956L171.18894375000002,153.53598897531623L173.53895625,153.59715209528798L175.88896875,153.80611256882543L178.23898125000002,153.94815053045744L180.58899375000001,154.03738054633135L182.93900625,154.21900418773288L185.28901875000003,154.33662557229394L187.63903125000002,154.37848256155843L189.98904374999998,154.48499075323338L192.33905625,154.5040535293519L194.68906875,154.60317996516818L197.03908124999998,154.7195845767855L199.38909375,154.8888782523572L201.73910625,155.02718477696175L204.08911874999998,155.16800596565005L206.43913125,155.38369924947614L208.78914375,155.40089630708093L211.13915624999998,155.53620145842427L213.48916875,155.59541774168605L215.83918125,155.69965462386602L218.18919375,155.681727502495L220.53920625,155.7669827267527L222.88921875,155.95769160613412L225.23923125,155.89052573963994L227.58924375,155.94560499489302L229.93925625,156.0490306951105L232.28926875,156.070040307939L234.63928125,156.19196095690126L236.98929375,156.22359705343837L239.33930625,156.27307915315026L241.68931875,156.29262863844627L244.03933125,156.4327197633683L246.38934375,156.4709264338016L248.73935625000001,156.4954241290688L251.08936875,156.49347729235882L253.43938125,156.65165777504438L255.78939375000002,156.61158538609737L258.13940625000004,156.59811976552004L260.48941875,156.72945012524718L262.83943125,156.82143815979356" style="fill: none;" fill="none"></path></g></g></g></g></g></g><g transform="translate(51, 176)" clip-path="url(#clip_1)"><clipPath id="clip_1"><rect width="278" height="23"></rect></clipPath><g><g><line x1="0" y1="0" x2="0" y2="5" style="visibility: inherit;" fill="rgb(0, 0, 0)" stroke="rgb(204, 204, 204)" stroke-width="1px"></line><line x1="27.84375" y1="0" x2="27.84375" y2="5" style="visibility: inherit;" fill="rgb(0, 0, 0)" stroke="rgb(204, 204, 204)" stroke-width="1px"></line><line x1="55.6875" y1="0" x2="55.6875" y2="5" style="visibility: inherit;" fill="rgb(0, 0, 0)" stroke="rgb(204, 204, 204)" stroke-width="1px"></line><line x1="83.53125" y1="0" x2="83.53125" y2="5" style="visibility: inherit;" fill="rgb(0, 0, 0)" stroke="rgb(204, 204, 204)" stroke-width="1px"></line><line x1="111.375" y1="0" x2="111.375" y2="5" style="visibility: inherit;" fill="rgb(0, 0, 0)" stroke="rgb(204, 204, 204)" stroke-width="1px"></line><line x1="139.21875" y1="0" x2="139.21875" y2="5" style="visibility: inherit;" fill="rgb(0, 0, 0)" stroke="rgb(204, 204, 204)" stroke-width="1px"></line><line x1="167.0625" y1="0" x2="167.0625" y2="5" style="visibility: inherit;" fill="rgb(0, 0, 0)" stroke="rgb(204, 204, 204)" stroke-width="1px"></line><line x1="194.90625" y1="0" x2="194.90625" y2="5" style="visibility: inherit;" fill="rgb(0, 0, 0)" stroke="rgb(204, 204, 204)" stroke-width="1px"></line><line x1="222.75" y1="0" x2="222.75" y2="5" style="visibility: inherit;" fill="rgb(0, 0, 0)" stroke="rgb(204, 204, 204)" stroke-width="1px"></line><line x1="250.59375" y1="0" x2="250.59375" y2="5" style="visibility: inherit;" fill="rgb(0, 0, 0)" stroke="rgb(204, 204, 204)" stroke-width="1px"></line><line x1="278.4375" y1="0" x2="278.4375" y2="5" style="visibility: inherit;" fill="rgb(0, 0, 0)" stroke="rgb(204, 204, 204)" stroke-width="1px"></line></g><g transform="translate(0, 8)"><text x="0" y="0" dx="0em" dy="0.95em" style="text-anchor: middle; visibility: hidden; font-family: Roboto, sans-serif; font-size: 12px; font-weight: 200;" fill="rgb(33, 33, 33)" stroke="none" stroke-width="1px">-5k</text><text x="27.84375" y="0" dx="0em" dy="0.95em" style="text-anchor: middle; visibility: inherit; font-family: Roboto, sans-serif; font-size: 12px; font-weight: 200;" fill="rgb(33, 33, 33)" stroke="none" stroke-width="1px">0</text><text x="55.6875" y="0" dx="0em" dy="0.95em" style="text-anchor: middle; visibility: inherit; font-family: Roboto, sans-serif; font-size: 12px; font-weight: 200;" fill="rgb(33, 33, 33)" stroke="none" stroke-width="1px">5k</text><text x="83.53125" y="0" dx="0em" dy="0.95em" style="text-anchor: middle; visibility: inherit; font-family: Roboto, sans-serif; font-size: 12px; font-weight: 200;" fill="rgb(33, 33, 33)" stroke="none" stroke-width="1px">10k</text><text x="111.375" y="0" dx="0em" dy="0.95em" style="text-anchor: middle; visibility: inherit; font-family: Roboto, sans-serif; font-size: 12px; font-weight: 200;" fill="rgb(33, 33, 33)" stroke="none" stroke-width="1px">15k</text><text x="139.21875" y="0" dx="0em" dy="0.95em" style="text-anchor: middle; visibility: inherit; font-family: Roboto, sans-serif; font-size: 12px; font-weight: 200;" fill="rgb(33, 33, 33)" stroke="none" stroke-width="1px">20k</text><text x="167.0625" y="0" dx="0em" dy="0.95em" style="text-anchor: middle; visibility: inherit; font-family: Roboto, sans-serif; font-size: 12px; font-weight: 200;" fill="rgb(33, 33, 33)" stroke="none" stroke-width="1px">25k</text><text x="194.90625" y="0" dx="0em" dy="0.95em" style="text-anchor: middle; visibility: inherit; font-family: Roboto, sans-serif; font-size: 12px; font-weight: 200;" fill="rgb(33, 33, 33)" stroke="none" stroke-width="1px">30k</text><text x="222.75" y="0" dx="0em" dy="0.95em" style="text-anchor: middle; visibility: inherit; font-family: Roboto, sans-serif; font-size: 12px; font-weight: 200;" fill="rgb(33, 33, 33)" stroke="none" stroke-width="1px">35k</text><text x="250.59375" y="0" dx="0em" dy="0.95em" style="text-anchor: middle; visibility: inherit; font-family: Roboto, sans-serif; font-size: 12px; font-weight: 200;" fill="rgb(33, 33, 33)" stroke="none" stroke-width="1px">40k</text><text x="278.4375" y="0" dx="0em" dy="0.95em" style="text-anchor: middle; visibility: hidden; font-family: Roboto, sans-serif; font-size: 12px; font-weight: 200;" fill="rgb(33, 33, 33)" stroke="none" stroke-width="1px">45k</text></g><line x1="0" y1="0" x2="278.4375" y2="0" fill="rgb(0, 0, 0)" stroke="rgb(204, 204, 204)" stroke-width="1px"></line></g></g></g></g></svg>